<svg width="75" height="22" viewBox="0 0 75 22" fill="none" xmlns="http://www.w3.org/2000/svg">
<path d="M3.1849 4.89237H1.1678V0.109479H2.96078C3.27279 0.109479 3.54086 0.148254 3.76499 0.225802C3.9935 0.30335 4.16489 0.408268 4.27915 0.540556C4.48569 0.786885 4.58897 1.06515 4.58897 1.37534C4.58897 1.74939 4.47251 2.02765 4.2396 2.21012C4.1605 2.27398 4.10556 2.31504 4.0748 2.33328C4.04404 2.34697 3.98911 2.37206 3.91001 2.40855C4.19565 2.47241 4.42197 2.60698 4.58897 2.81226C4.76035 3.01297 4.84605 3.26386 4.84605 3.56493C4.84605 3.89793 4.73618 4.19216 4.51646 4.44761C4.26157 4.74412 3.81772 4.89237 3.1849 4.89237ZM2.19613 2.0459H2.68392C2.96957 2.0459 3.18051 2.01397 3.31674 1.95011C3.45737 1.88624 3.52768 1.74939 3.52768 1.53956C3.52768 1.32516 3.46396 1.18375 3.33652 1.11532C3.20907 1.0469 2.99374 1.01269 2.69051 1.01269H2.19613V2.0459ZM2.19613 3.98916H2.90145C3.19589 3.98916 3.41562 3.95267 3.56064 3.87968C3.71005 3.80214 3.78476 3.65388 3.78476 3.43492C3.78476 3.2114 3.70566 3.06543 3.54745 2.997C3.39365 2.92402 3.14535 2.88753 2.80258 2.88753H2.19613V3.98916Z" fill="#5B5B5B"/>
<path d="M6.93206 3.66072C7.10345 3.87968 7.33416 3.98916 7.6242 3.98916C7.91424 3.98916 8.14276 3.87968 8.30976 3.66072C8.48114 3.4372 8.56684 3.13385 8.56684 2.75068V0.109479H9.59517V2.78489C9.59517 3.47826 9.41059 4.01197 9.04145 4.38603C8.67231 4.75552 8.19989 4.94027 7.6242 4.94027C7.04851 4.94027 6.5739 4.75324 6.20036 4.37918C5.83122 4.00513 5.64665 3.4737 5.64665 2.78489V0.109479H6.67498V2.75068C6.67498 3.13385 6.76067 3.4372 6.93206 3.66072Z" fill="#5B5B5B"/>
<path d="M12.1461 0.937419C11.9747 0.937419 11.8384 0.980755 11.7374 1.06743C11.6407 1.14954 11.5923 1.2613 11.5923 1.40271C11.5923 1.53956 11.6517 1.64904 11.7703 1.73115C11.8934 1.81326 12.1724 1.91133 12.6075 2.02537C13.0469 2.13485 13.3875 2.30135 13.6292 2.52487C13.8709 2.74839 13.9918 3.07455 13.9918 3.50335C13.9918 3.93214 13.8358 4.28111 13.5238 4.55025C13.2161 4.81482 12.8096 4.94711 12.3043 4.94711C11.5748 4.94711 10.9178 4.66657 10.3333 4.10549L10.9463 3.32544C11.4429 3.77705 11.9022 4.00285 12.324 4.00285C12.513 4.00285 12.6602 3.96179 12.7657 3.87968C12.8756 3.79301 12.9305 3.67897 12.9305 3.53756C12.9305 3.39159 12.8734 3.27755 12.7591 3.19544C12.6448 3.10876 12.4185 3.02209 12.0801 2.93542C11.544 2.80313 11.1507 2.63207 10.9002 2.42224C10.6541 2.20784 10.5311 1.87484 10.5311 1.42324C10.5311 0.96707 10.6871 0.615823 10.9991 0.369494C11.3155 0.123165 11.7088 0 12.179 0C12.4866 0 12.7943 0.0547398 13.1019 0.164219C13.4095 0.273699 13.6776 0.428795 13.9061 0.629508L13.3853 1.40955C12.9854 1.0948 12.5723 0.937419 12.1461 0.937419Z" fill="#5B5B5B"/>
<path d="M14.8665 0.109479H15.8948V4.89237H14.8665V0.109479Z" fill="#5B5B5B"/>
<path d="M20.2528 0.109479H21.2812V4.89237H20.2528L18.0578 1.89537V4.89237H17.0294V0.109479H17.9918L20.2528 3.18859V0.109479Z" fill="#5B5B5B"/>
<path d="M25.7398 0.109479V1.06058H23.4458V2.0459H25.5091V2.95595H23.4458V3.94811H25.8123V4.89237H22.4175V0.109479H25.7398Z" fill="#5B5B5B"/>
<path d="M28.2137 0.937419C28.0423 0.937419 27.9061 0.980755 27.805 1.06743C27.7083 1.14954 27.66 1.2613 27.66 1.40271C27.66 1.53956 27.7193 1.64904 27.8379 1.73115C27.961 1.81326 28.2401 1.91133 28.6751 2.02537C29.1146 2.13485 29.4551 2.30135 29.6968 2.52487C29.9386 2.74839 30.0594 3.07455 30.0594 3.50335C30.0594 3.93214 29.9034 4.28111 29.5914 4.55025C29.2838 4.81482 28.8773 4.94711 28.3719 4.94711C27.6424 4.94711 26.9854 4.66657 26.4009 4.10549L27.014 3.32544C27.5106 3.77705 27.9698 4.00285 28.3917 4.00285C28.5806 4.00285 28.7278 3.96179 28.8333 3.87968C28.9432 3.79301 28.9981 3.67897 28.9981 3.53756C28.9981 3.39159 28.941 3.27755 28.8267 3.19544C28.7125 3.10876 28.4861 3.02209 28.1478 2.93542C27.6116 2.80313 27.2183 2.63207 26.9678 2.42224C26.7217 2.20784 26.5987 1.87484 26.5987 1.42324C26.5987 0.96707 26.7547 0.615823 27.0667 0.369494C27.3831 0.123165 27.7764 0 28.2466 0C28.5543 0 28.8619 0.0547398 29.1695 0.164219C29.4771 0.273699 29.7452 0.428795 29.9737 0.629508L29.4529 1.40955C29.053 1.0948 28.64 0.937419 28.2137 0.937419Z" fill="#5B5B5B"/>
<path d="M32.4173 0.937419C32.2459 0.937419 32.1097 0.980755 32.0086 1.06743C31.9119 1.14954 31.8636 1.2613 31.8636 1.40271C31.8636 1.53956 31.9229 1.64904 32.0415 1.73115C32.1646 1.81326 32.4436 1.91133 32.8787 2.02537C33.3182 2.13485 33.6587 2.30135 33.9004 2.52487C34.1421 2.74839 34.263 3.07455 34.263 3.50335C34.263 3.93214 34.107 4.28111 33.795 4.55025C33.4874 4.81482 33.0809 4.94711 32.5755 4.94711C31.846 4.94711 31.189 4.66657 30.6045 4.10549L31.2176 3.32544C31.7141 3.77705 32.1734 4.00285 32.5953 4.00285C32.7842 4.00285 32.9314 3.96179 33.0369 3.87968C33.1468 3.79301 33.2017 3.67897 33.2017 3.53756C33.2017 3.39159 33.1446 3.27755 33.0303 3.19544C32.9161 3.10876 32.6897 3.02209 32.3514 2.93542C31.8152 2.80313 31.4219 2.63207 31.1714 2.42224C30.9253 2.20784 30.8023 1.87484 30.8023 1.42324C30.8023 0.96707 30.9583 0.615823 31.2703 0.369494C31.5867 0.123165 31.98 0 32.4502 0C32.7579 0 33.0655 0.0547398 33.3731 0.164219C33.6807 0.273699 33.9488 0.428795 34.1773 0.629508L33.6565 1.40955C33.2566 1.0948 32.8435 0.937419 32.4173 0.937419Z" fill="#5B5B5B"/>
<path d="M38.504 0.109479C39.2115 0.109479 39.7257 0.253171 40.0465 0.540556C40.3717 0.823378 40.5343 1.2613 40.5343 1.85431C40.5343 2.44276 40.3673 2.87384 40.0333 3.14754C39.7037 3.42124 39.1983 3.55809 38.5172 3.55809H37.9041V4.89237H36.8758V0.109479H38.504ZM38.5963 2.63435C38.939 2.63435 39.1719 2.56365 39.295 2.42224C39.418 2.27626 39.4796 2.06643 39.4796 1.79273C39.4796 1.51447 39.3983 1.31832 39.2357 1.20428C39.0775 1.08567 38.8292 1.02637 38.4908 1.02637H37.9041V2.63435H38.5963Z" fill="#5B5B5B"/>
<path d="M44.3492 4.89237L43.9208 3.85916H41.9894L41.5609 4.89237H40.4666L42.4574 0.109479H43.4527L45.4435 4.89237H44.3492ZM42.9584 1.53271L42.3783 2.92174H43.5318L42.9584 1.53271Z" fill="#5B5B5B"/>
<path d="M49.7158 1.69693C49.7158 2.46329 49.4235 2.95823 48.8391 3.18175L50.0058 4.89237H48.7402L47.7184 3.3665H47.0065V4.89237H45.9782V0.109479H47.725C48.4413 0.109479 48.9511 0.234925 49.2543 0.485816C49.562 0.736706 49.7158 1.14041 49.7158 1.69693ZM47.758 2.44276C48.1096 2.44276 48.3491 2.38346 48.4765 2.26486C48.604 2.14626 48.6677 1.95923 48.6677 1.70378C48.6677 1.44376 48.6018 1.26586 48.4699 1.17006C48.3381 1.07427 48.1074 1.02637 47.7778 1.02637H47.0065V2.44276H47.758Z" fill="#5B5B5B"/>
<path d="M52.6287 1.03321V4.89237H51.6003V1.03321H50.2951V0.109479H53.9338V1.03321H52.6287Z" fill="#5B5B5B"/>
<path d="M57.9113 0.109479H58.9397V4.89237H57.9113L55.7163 1.89537V4.89237H54.6879V0.109479H55.6503L57.9113 3.18859V0.109479Z" fill="#5B5B5B"/>
<path d="M63.3983 0.109479V1.06058H61.1043V2.0459H63.1676V2.95595H61.1043V3.94811H63.4708V4.89237H60.076V0.109479H63.3983Z" fill="#5B5B5B"/>
<path d="M68.1266 1.69693C68.1266 2.46329 67.8344 2.95823 67.2499 3.18175L68.4166 4.89237H67.151L66.1293 3.3665H65.4174V4.89237H64.389V0.109479H66.1359C66.8522 0.109479 67.3619 0.234925 67.6652 0.485816C67.9728 0.736706 68.1266 1.14041 68.1266 1.69693ZM66.1688 2.44276C66.5204 2.44276 66.7599 2.38346 66.8873 2.26486C67.0148 2.14626 67.0785 1.95923 67.0785 1.70378C67.0785 1.44376 67.0126 1.26586 66.8807 1.17006C66.7489 1.07427 66.5182 1.02637 66.1886 1.02637H65.4174V2.44276H66.1688Z" fill="#5B5B5B"/>
<path d="M6.01072 8.70471C5.44244 8.70471 4.99072 8.8484 4.65558 9.13579C4.33501 9.40804 4.17472 9.77862 4.17472 10.2475C4.17472 10.7013 4.37144 11.0643 4.76486 11.3365C5.17287 11.6088 6.09815 11.934 7.54073 12.3121C8.99787 12.6751 10.1272 13.2272 10.9286 13.9684C11.73 14.7095 12.1307 15.791 12.1307 17.2128C12.1307 18.6346 11.6134 19.7917 10.5789 20.6841C9.55887 21.5614 8.21101 22 6.5353 22C4.11644 22 1.938 21.0698 0 19.2094L2.03272 16.6229C3.67929 18.1203 5.20201 18.869 6.60087 18.869C7.22744 18.869 7.71558 18.7329 8.0653 18.4606C8.42959 18.1733 8.61173 17.7951 8.61173 17.3262C8.61173 16.8422 8.4223 16.4641 8.04344 16.1918C7.66458 15.9044 6.91415 15.6171 5.79215 15.3297C4.01444 14.891 2.71029 14.3238 1.87972 13.6281C1.06372 12.9172 0.655715 11.813 0.655715 10.3156C0.655715 8.80302 1.173 7.63836 2.20758 6.82159C3.25672 6.00481 4.56086 5.59642 6.12001 5.59642C7.14001 5.59642 8.16001 5.77793 9.18001 6.14094C10.2 6.50395 11.0889 7.01822 11.8466 7.68374L10.1199 10.2702C8.79387 9.22654 7.42416 8.70471 6.01072 8.70471Z" fill="#5B5B5B"/>
<path d="M19.0747 17.7346C19.6429 18.4606 20.4079 18.8237 21.3697 18.8237C22.3314 18.8237 23.0891 18.4606 23.6428 17.7346C24.2111 16.9935 24.4952 15.9876 24.4952 14.7171V5.95943H27.905V14.8305C27.905 17.1296 27.293 18.8993 26.069 20.1396C24.845 21.3647 23.2785 21.9773 21.3697 21.9773C19.4608 21.9773 17.8871 21.3572 16.6485 20.1169C15.4245 18.8766 14.8125 17.1145 14.8125 14.8305V5.95943H18.2222V14.7171C18.2222 15.9876 18.5064 16.9935 19.0747 17.7346Z" fill="#5B5B5B"/>
<path d="M40.9313 5.95943H44.341V21.8185H40.9313V15.5792H34.855V21.8185H31.4453V5.95943H34.855V12.5844H40.9313V5.95943Z" fill="#5B5B5B"/>
<path d="M52.1379 17.7346C52.7062 18.4606 53.4712 18.8237 54.4329 18.8237C55.3946 18.8237 56.1523 18.4606 56.7061 17.7346C57.2743 16.9935 57.5585 15.9876 57.5585 14.7171V5.95943H60.9682V14.8305C60.9682 17.1296 60.3562 18.8993 59.1322 20.1396C57.9082 21.3647 56.3418 21.9773 54.4329 21.9773C52.524 21.9773 50.9503 21.3572 49.7118 20.1169C48.4878 18.8766 47.8758 17.1145 47.8758 14.8305V5.95943H51.2855V14.7171C51.2855 15.9876 51.5696 16.9935 52.1379 17.7346Z" fill="#5B5B5B"/>
<path d="M75 5.95943V9.06772H67.9183V12.4936H74.6503V15.6019H67.9183V21.8185H64.5086V5.95943H75Z" fill="#5B5B5B"/>
</svg>
