<svg width="88" height="12" viewBox="0 0 88 12" fill="none" xmlns="http://www.w3.org/2000/svg">
<path d="M6.285 11.24C5.445 11.24 4.665 11.11 3.945 10.85C3.235 10.58 2.615 10.2 2.085 9.71C1.565 9.22 1.16 8.64 0.87 7.97C0.58 7.3 0.435 6.56 0.435 5.75C0.435 4.94 0.58 4.2 0.87 3.53C1.16 2.86 1.565 2.28 2.085 1.79C2.615 1.3 3.235 0.924999 3.945 0.665C4.665 0.395 5.445 0.26 6.285 0.26C7.315 0.26 8.225 0.44 9.015 0.8C9.815 1.16 10.475 1.68 10.995 2.36L8.76 4.355C8.45 3.965 8.105 3.665 7.725 3.455C7.355 3.235 6.935 3.125 6.465 3.125C6.095 3.125 5.76 3.185 5.46 3.305C5.16 3.425 4.9 3.6 4.68 3.83C4.47 4.06 4.305 4.34 4.185 4.67C4.065 4.99 4.005 5.35 4.005 5.75C4.005 6.15 4.065 6.515 4.185 6.845C4.305 7.165 4.47 7.44 4.68 7.67C4.9 7.9 5.16 8.075 5.46 8.195C5.76 8.315 6.095 8.375 6.465 8.375C6.935 8.375 7.355 8.27 7.725 8.06C8.105 7.84 8.45 7.535 8.76 7.145L10.995 9.14C10.475 9.81 9.815 10.33 9.015 10.7C8.225 11.06 7.315 11.24 6.285 11.24ZM16.0127 11.15C15.0827 11.15 14.2577 10.97 13.5377 10.61C12.8277 10.24 12.2677 9.735 11.8577 9.095C11.4477 8.455 11.2427 7.72 11.2427 6.89C11.2427 6.06 11.4477 5.325 11.8577 4.685C12.2677 4.045 12.8277 3.545 13.5377 3.185C14.2577 2.825 15.0827 2.645 16.0127 2.645C16.9427 2.645 17.7677 2.825 18.4877 3.185C19.2077 3.545 19.7677 4.045 20.1677 4.685C20.5777 5.325 20.7827 6.06 20.7827 6.89C20.7827 7.72 20.5777 8.455 20.1677 9.095C19.7677 9.735 19.2077 10.24 18.4877 10.61C17.7677 10.97 16.9427 11.15 16.0127 11.15ZM16.0127 8.51C16.2627 8.51 16.4877 8.45 16.6877 8.33C16.8877 8.21 17.0477 8.03 17.1677 7.79C17.2877 7.54 17.3477 7.24 17.3477 6.89C17.3477 6.53 17.2877 6.235 17.1677 6.005C17.0477 5.765 16.8877 5.585 16.6877 5.465C16.4877 5.345 16.2627 5.285 16.0127 5.285C15.7627 5.285 15.5377 5.345 15.3377 5.465C15.1377 5.585 14.9777 5.765 14.8577 6.005C14.7377 6.235 14.6777 6.53 14.6777 6.89C14.6777 7.24 14.7377 7.54 14.8577 7.79C14.9777 8.03 15.1377 8.21 15.3377 8.33C15.5377 8.45 15.7627 8.51 16.0127 8.51ZM27.5438 2.645C28.1738 2.645 28.7438 2.775 29.2538 3.035C29.7638 3.285 30.1638 3.68 30.4538 4.22C30.7538 4.76 30.9038 5.46 30.9038 6.32V11H27.5138V6.905C27.5138 6.395 27.4238 6.035 27.2438 5.825C27.0638 5.605 26.8188 5.495 26.5088 5.495C26.2788 5.495 26.0638 5.55 25.8638 5.66C25.6738 5.76 25.5188 5.93 25.3988 6.17C25.2888 6.41 25.2338 6.735 25.2338 7.145V11H21.8438V2.795H25.0688V5.195L24.4238 4.505C24.7438 3.885 25.1738 3.42 25.7138 3.11C26.2638 2.8 26.8738 2.645 27.5438 2.645ZM36.336 11.15C35.206 11.15 34.326 10.88 33.696 10.34C33.066 9.79 32.751 8.95 32.751 7.82V0.95H36.141V7.79C36.141 8.04 36.206 8.235 36.336 8.375C36.476 8.515 36.646 8.585 36.846 8.585C37.136 8.585 37.391 8.51 37.611 8.36L38.421 10.715C38.161 10.865 37.846 10.975 37.476 11.045C37.116 11.115 36.736 11.15 36.336 11.15ZM31.626 5.72V3.245H37.821V5.72H31.626ZM44.2404 11V9.545L44.0004 9.155V6.395C44.0004 5.995 43.8754 5.69 43.6254 5.48C43.3854 5.27 42.9904 5.165 42.4404 5.165C42.0704 5.165 41.6954 5.225 41.3154 5.345C40.9354 5.455 40.6104 5.61 40.3404 5.81L39.2604 3.575C39.7404 3.275 40.3154 3.045 40.9854 2.885C41.6554 2.725 42.3104 2.645 42.9504 2.645C44.3604 2.645 45.4504 2.96 46.2204 3.59C47.0004 4.22 47.3904 5.22 47.3904 6.59V11H44.2404ZM41.9154 11.15C41.2454 11.15 40.6854 11.035 40.2354 10.805C39.7854 10.575 39.4454 10.27 39.2154 9.89C38.9854 9.5 38.8704 9.07 38.8704 8.6C38.8704 8.07 39.0054 7.62 39.2754 7.25C39.5454 6.88 39.9554 6.6 40.5054 6.41C41.0654 6.22 41.7704 6.125 42.6204 6.125H44.3304V7.76H43.1604C42.8004 7.76 42.5354 7.82 42.3654 7.94C42.2054 8.05 42.1254 8.22 42.1254 8.45C42.1254 8.64 42.1954 8.8 42.3354 8.93C42.4854 9.05 42.6854 9.11 42.9354 9.11C43.1654 9.11 43.3754 9.05 43.5654 8.93C43.7654 8.8 43.9104 8.6 44.0004 8.33L44.4354 9.335C44.3054 9.945 44.0304 10.4 43.6104 10.7C43.1904 11 42.6254 11.15 41.9154 11.15ZM53.412 11.15C52.472 11.15 51.637 10.97 50.907 10.61C50.177 10.25 49.602 9.75 49.182 9.11C48.772 8.46 48.567 7.72 48.567 6.89C48.567 6.06 48.772 5.325 49.182 4.685C49.602 4.045 50.177 3.545 50.907 3.185C51.637 2.825 52.472 2.645 53.412 2.645C54.412 2.645 55.267 2.86 55.977 3.29C56.687 3.72 57.177 4.315 57.447 5.075L54.822 6.365C54.652 5.985 54.442 5.71 54.192 5.54C53.952 5.37 53.687 5.285 53.397 5.285C53.147 5.285 52.912 5.345 52.692 5.465C52.482 5.585 52.312 5.765 52.182 6.005C52.062 6.235 52.002 6.53 52.002 6.89C52.002 7.25 52.062 7.55 52.182 7.79C52.312 8.03 52.482 8.21 52.692 8.33C52.912 8.45 53.147 8.51 53.397 8.51C53.687 8.51 53.952 8.425 54.192 8.255C54.442 8.085 54.652 7.81 54.822 7.43L57.447 8.72C57.177 9.48 56.687 10.075 55.977 10.505C55.267 10.935 54.412 11.15 53.412 11.15ZM62.337 11.15C61.207 11.15 60.327 10.88 59.697 10.34C59.067 9.79 58.752 8.95 58.752 7.82V0.95H62.142V7.79C62.142 8.04 62.207 8.235 62.337 8.375C62.477 8.515 62.647 8.585 62.847 8.585C63.137 8.585 63.392 8.51 63.612 8.36L64.422 10.715C64.162 10.865 63.847 10.975 63.477 11.045C63.117 11.115 62.737 11.15 62.337 11.15ZM57.627 5.72V3.245H63.822V5.72H57.627ZM74.3921 11.09C73.0521 11.09 71.9971 10.705 71.2271 9.935C70.4571 9.165 70.0721 8.025 70.0721 6.515V0.499999H71.1821V6.47C71.1821 7.71 71.4621 8.625 72.0221 9.215C72.5821 9.805 73.3721 10.1 74.3921 10.1C75.4221 10.1 76.2171 9.805 76.7771 9.215C77.3371 8.625 77.6171 7.71 77.6171 6.47V0.499999H78.6971V6.515C78.6971 8.025 78.3121 9.165 77.5421 9.935C76.7821 10.705 75.7321 11.09 74.3921 11.09ZM83.932 11.075C83.282 11.075 82.667 10.985 82.087 10.805C81.507 10.615 81.052 10.38 80.722 10.1L81.202 9.26C81.522 9.5 81.932 9.71 82.432 9.89C82.932 10.06 83.457 10.145 84.007 10.145C84.757 10.145 85.297 10.03 85.627 9.8C85.957 9.56 86.122 9.245 86.122 8.855C86.122 8.565 86.027 8.34 85.837 8.18C85.657 8.01 85.417 7.885 85.117 7.805C84.817 7.715 84.482 7.64 84.112 7.58C83.742 7.52 83.372 7.45 83.002 7.37C82.642 7.29 82.312 7.175 82.012 7.025C81.712 6.865 81.467 6.65 81.277 6.38C81.097 6.11 81.007 5.75 81.007 5.3C81.007 4.87 81.127 4.485 81.367 4.145C81.607 3.805 81.957 3.54 82.417 3.35C82.887 3.15 83.457 3.05 84.127 3.05C84.637 3.05 85.147 3.12 85.657 3.26C86.167 3.39 86.587 3.565 86.917 3.785L86.452 4.64C86.102 4.4 85.727 4.23 85.327 4.13C84.927 4.02 84.527 3.965 84.127 3.965C83.417 3.965 82.892 4.09 82.552 4.34C82.222 4.58 82.057 4.89 82.057 5.27C82.057 5.57 82.147 5.805 82.327 5.975C82.517 6.145 82.762 6.28 83.062 6.38C83.372 6.47 83.707 6.545 84.067 6.605C84.437 6.665 84.802 6.74 85.162 6.83C85.532 6.91 85.867 7.025 86.167 7.175C86.477 7.315 86.722 7.52 86.902 7.79C87.092 8.05 87.187 8.395 87.187 8.825C87.187 9.285 87.057 9.685 86.797 10.025C86.547 10.355 86.177 10.615 85.687 10.805C85.207 10.985 84.622 11.075 83.932 11.075Z" fill="#5B5B5B"/>
</svg>
