<svg width="76" height="15" viewBox="0 0 76 15" fill="none" xmlns="http://www.w3.org/2000/svg">
<path d="M0.0409832 14.8115V6.56427H4.09362C6.84237 6.56427 8.7336 8.13124 8.7336 10.6879C8.7336 13.2445 6.84237 14.8115 4.09362 14.8115H0.0409832ZM2.81322 12.6437H3.97616C5.13909 12.6437 5.93787 11.9485 5.93787 10.6879C5.93787 9.42723 5.13909 8.73211 3.97616 8.73211H2.81322V12.6437Z" fill="#5B5B5B"/>
<path d="M9.74585 14.8115V6.56427H12.5181V14.8115H9.74585Z" fill="#5B5B5B"/>
<path d="M15.6381 14.8115V8.72033H13.2301V6.56427H20.8185V8.72033H18.4104V14.8115H15.6381Z" fill="#5B5B5B"/>
<path d="M24.2638 12.7143H28.3751V14.8115H21.5385V6.56427H28.2224V8.66142H24.2638V9.62752H27.7408V11.6304H24.2638V12.7143Z" fill="#5B5B5B"/>
<path d="M39.3097 14.8115H36.7841L36.7606 11.0531L34.9751 14.0692H33.7534L31.9679 11.1827V14.8115H29.4424V6.56427H31.7212L34.3995 10.9589L37.0073 6.56427H39.2862L39.3097 14.8115Z" fill="#5B5B5B"/>
<path d="M44.5852 15C42.0596 15 40.5795 13.5744 40.5795 11.1002V6.56427H43.3517V11.0178C43.3517 12.2784 43.8334 12.7497 44.6087 12.7497C45.3839 12.7497 45.8656 12.2784 45.8656 11.0178V6.56427H48.5908V11.1002C48.5908 13.5744 47.1107 15 44.5852 15Z" fill="#5B5B5B"/>
<path d="M55.2651 14.8115L53.2094 12.0781L52.5868 12.7732V14.8115H49.8616V6.56427H52.5868V9.55683L55.2886 6.56427H58.3075L55.0184 10.193L58.472 14.8115H55.2651Z" fill="#5B5B5B"/>
<path d="M64.5861 14.8115L64.034 13.3741H60.9093L60.3572 14.8115H57.538L61.1325 6.56427H63.8578L67.4523 14.8115H64.5861ZM61.6729 11.3712H63.2704L62.4717 9.29763L61.6729 11.3712Z" fill="#5B5B5B"/>
<path d="M73.2982 6.56427H76V14.8115H73.7211L70.5965 11.0649V14.8115H67.8947V6.56427H70.1736L73.2982 10.3109V6.56427Z" fill="#5B5B5B"/>
<path d="M1.80535 0C2.71655 0 3.41579 0.224813 3.90306 0.67444C4.39034 1.11918 4.63398 1.73986 4.63398 2.53648C4.63398 3.3331 4.39521 3.96356 3.91768 4.42784C3.44503 4.89213 2.72143 5.12428 1.74688 5.12428H0V0H1.80535ZM1.86382 4.11262C2.38521 4.11262 2.78477 3.98066 3.06252 3.71675C3.34514 3.45284 3.48645 3.06919 3.48645 2.5658C3.48645 2.06242 3.34514 1.67632 3.06252 1.40753C2.78477 1.13384 2.35597 0.996998 1.77611 0.996998H1.14022V4.11262H1.86382Z" fill="#5B5B5B"/>
<path d="M9.11463 5.12428L8.63954 4.01732H6.49797L6.02288 5.12428H4.80957L7.01692 0H8.12059L10.3279 5.12428H9.11463ZM7.57241 1.52482L6.92921 3.01299H8.2083L7.57241 1.52482Z" fill="#5B5B5B"/>
<path d="M12.7262 0C13.5107 0 14.0808 0.153948 14.4365 0.461845C14.7971 0.764854 14.9774 1.23403 14.9774 1.86937C14.9774 2.49983 14.7922 2.96167 14.4219 3.2549C14.0564 3.54814 13.4961 3.69476 12.7408 3.69476H12.0611V5.12428H10.9208V0H12.7262ZM12.8285 2.70509C13.2086 2.70509 13.4668 2.62934 13.6033 2.47783C13.7397 2.32144 13.8079 2.09663 13.8079 1.80339C13.8079 1.50527 13.7178 1.29512 13.5375 1.17294C13.3621 1.04587 13.0868 0.982337 12.7116 0.982337H12.0611V2.70509H12.8285Z" fill="#5B5B5B"/>
<path d="M19.2075 5.12428L18.7324 4.01732H16.5908L16.1157 5.12428H14.9024L17.1098 0H18.2134L20.4208 5.12428H19.2075ZM17.6653 1.52482L17.0221 3.01299H18.3012L17.6653 1.52482Z" fill="#5B5B5B"/>
<path d="M22.806 0.989667V5.12428H21.6658V0.989667H20.2186V0H24.2532V0.989667H22.806Z" fill="#5B5B5B"/>
</svg>
