<svg width="20" height="20" viewBox="0 0 48 47" preserveAspectRatio="none" fill="none" xmlns="http://www.w3.org/2000/svg">

<g filter="url(#filter0_d_665_1047)">
<path d="M34 20.6447V25.0211C34 28.132 32.939 30.2303 32.894 30.319C32.811 30.4804 32.6834 30.6161 32.5256 30.711C32.3678 30.8059 32.1859 30.8562 32.0004 30.8563C31.8454 30.8564 31.6926 30.821 31.5543 30.753C31.3171 30.6377 31.1368 30.4355 31.0529 30.1909C30.969 29.9463 30.9884 29.6793 31.1069 29.4486C31.1144 29.434 32.0017 27.6482 32.0017 25.0211V20.6447C32.0017 20.2578 31.8437 19.8868 31.5624 19.6132C31.2812 19.3396 30.8997 19.1859 30.502 19.1859C30.1042 19.1859 29.7228 19.3396 29.4415 19.6132C29.1603 19.8868 29.0023 20.2578 29.0023 20.6447V21.131C29.0023 21.3889 28.897 21.6363 28.7095 21.8187C28.522 22.0011 28.2677 22.1035 28.0025 22.1035C27.7373 22.1035 27.483 22.0011 27.2955 21.8187C27.108 21.6363 27.0027 21.3889 27.0027 21.131V18.6996C27.0027 18.3127 26.8447 17.9417 26.5635 17.6681C26.2822 17.3945 25.9008 17.2408 25.503 17.2408C25.1053 17.2408 24.7238 17.3945 24.4426 17.6681C24.1613 17.9417 24.0033 18.3127 24.0033 18.6996V20.1584C24.0033 20.4164 23.898 20.6637 23.7105 20.8461C23.523 21.0285 23.2687 21.131 23.0035 21.131C22.7384 21.131 22.4841 21.0285 22.2966 20.8461C22.1091 20.6637 22.0037 20.4164 22.0037 20.1584V11.8919C22.0037 11.505 21.8457 11.134 21.5645 10.8604C21.2832 10.5868 20.9018 10.4331 20.5041 10.4331C20.1063 10.4331 19.7249 10.5868 19.4436 10.8604C19.1624 11.134 19.0044 11.505 19.0044 11.8919V25.0211C19.0044 25.2324 18.9336 25.438 18.8028 25.6066C18.672 25.7753 18.4883 25.898 18.2795 25.9561C18.0707 26.0142 17.848 26.0046 17.6453 25.9287C17.4426 25.8527 17.2709 25.7147 17.156 25.5353L14.8215 21.8883L14.804 21.8604C14.7055 21.6944 14.5744 21.5488 14.4181 21.4321C14.2618 21.3153 14.0834 21.2297 13.8931 21.18C13.7028 21.1304 13.5043 21.1176 13.3089 21.1426C13.1135 21.1676 12.9251 21.2297 12.7544 21.3255C12.5837 21.4213 12.4341 21.5488 12.3141 21.7009C12.1941 21.8529 12.1061 22.0264 12.055 22.2116C12.0039 22.3967 11.9909 22.5898 12.0165 22.7798C12.0422 22.9699 12.1061 23.1532 12.2045 23.3192L15.865 29.3975C15.9421 29.508 15.9949 29.6328 16.0202 29.764C16.0455 29.8952 16.0428 30.0301 16.0122 30.1603C15.9816 30.2904 15.9237 30.4131 15.8423 30.5205C15.7608 30.628 15.6575 30.718 15.5387 30.7849C15.4199 30.8518 15.2883 30.8943 15.1519 30.9095C15.0156 30.9248 14.8774 30.9126 14.7461 30.8737C14.6148 30.8348 14.4932 30.77 14.3887 30.6833C14.2843 30.5967 14.1993 30.49 14.1391 30.3701L10.4749 24.2917C10.008 23.5113 9.87901 22.5825 10.1162 21.7095C10.3534 20.8366 10.9373 20.0911 11.7396 19.6369C12.5419 19.1828 13.4968 19.0573 14.3942 19.288C15.2916 19.5187 16.058 20.0868 16.5249 20.8672L17.0035 21.6173V11.8919C17.0035 10.9891 17.3722 10.1234 18.0284 9.48501C18.6847 8.84666 19.5747 8.48804 20.5028 8.48804C21.4309 8.48804 22.3209 8.84666 22.9772 9.48501C23.6334 10.1234 24.0021 10.9891 24.0021 11.8919V15.624C24.452 15.4163 24.9424 15.3044 25.4403 15.2958C25.9383 15.2872 26.4324 15.3821 26.8897 15.5742C27.3469 15.7662 27.7567 16.051 28.0918 16.4095C28.4268 16.768 28.6792 17.1919 28.8323 17.653C29.3653 17.3717 29.9643 17.2301 30.5705 17.2418C31.1767 17.2536 31.7693 17.4184 32.2904 17.72C32.8114 18.0217 33.2429 18.4498 33.5426 18.9625C33.8423 19.4752 33.9999 20.0549 34 20.6447Z" fill="white"/>
</g>
<defs>
<filter id="filter0_d_665_1047" x="0" y="0.488037" width="48" height="46.4279" filterUnits="userSpaceOnUse" color-interpolation-filters="sRGB">
<feFlood flood-opacity="0" result="BackgroundImageFix"/>
<feColorMatrix in="SourceAlpha" type="matrix" values="0 0 0 0 0 0 0 0 0 0 0 0 0 0 0 0 0 0 127 0" result="hardAlpha"/>
<feOffset dx="2" dy="4"/>
<feGaussianBlur stdDeviation="6"/>
<feComposite in2="hardAlpha" operator="out"/>
<feColorMatrix type="matrix" values="0 0 0 0 0 0 0 0 0 0 0 0 0 0 0 0 0 0 0.25 0"/>
<feBlend mode="normal" in2="BackgroundImageFix" result="effect1_dropShadow_665_1047"/>
<feBlend mode="normal" in="SourceGraphic" in2="effect1_dropShadow_665_1047" result="shape"/>
</filter>
</defs>
</svg>
