<?xml version="1.0" encoding="UTF-8" standalone="no"?>
<!DOCTYPE svg PUBLIC "-//W3C//DTD SVG 1.1//EN" "http://www.w3.org/Graphics/SVG/1.1/DTD/svg11.dtd">
<svg xmlns="http://www.w3.org/2000/svg" version="1.1" viewBox="0.00 0.00 800.00 800.00">
<g stroke-width="2.00" fill="none" stroke-linecap="butt">
<path stroke="#96c9b0" vector-effect="non-scaling-stroke" d="
  M 129.60 164.68
  C 106.86 209.03 90.29 258.52 94.25 309.06
  C 97.74 353.66 121.06 393.39 133.95 435.51
  C 142.47 463.34 144.95 492.11 141.07 520.92
  C 137.12 550.27 128.04 576.48 117.88 604.10
  A 1.19 1.18 9.7 0 0 119.01 605.69
  L 151.89 605.35
  Q 152.51 605.35 152.87 604.84
  Q 153.68 603.70 154.24 601.99
  Q 160.53 582.86 164.23 568.98
  Q 182.85 499.21 162.91 430.45
  C 155.63 405.35 146.47 381.08 138.12 356.42
  C 124.92 317.46 119.67 278.09 131.27 237.57
  C 139.36 209.30 152.75 184.42 168.22 159.86
  Q 169.27 158.19 167.30 158.25
  Q 153.18 158.65 138.04 158.47
  C 132.54 158.41 131.79 160.42 129.60 164.68"
/>
<path stroke="#96c9b0" vector-effect="non-scaling-stroke" d="
  M 276.55 605.26
  Q 276.68 605.31 276.81 605.42
  Q 277.04 605.61 277.34 605.61
  Q 292.09 605.14 306.83 605.46
  C 308.91 605.51 310.39 604.36 311.04 602.55
  C 328.55 554.06 335.73 502.61 325.01 451.76
  C 317.61 416.67 303.45 382.34 292.82 349.94
  Q 284.89 325.79 282.28 299.96
  C 277.02 247.85 298.56 202.61 325.44 159.55
  Q 326.15 158.41 324.81 158.42
  L 291.12 158.67
  A 2.68 2.67 -76.7 0 0 288.75 160.14
  C 270.81 195.59 255.12 234.49 251.32 274.42
  Q 247.37 316.06 261.26 355.88
  C 269.62 379.88 279.58 402.10 288.26 427.20
  Q 301.59 465.75 299.47 505.71
  C 297.64 540.14 287.02 572.66 274.43 604.76
  Q 274.24 605.27 274.75 605.44
  Q 275.62 605.74 276.46 605.27
  Q 276.50 605.25 276.55 605.26"
/>
<path stroke="#96c9b0" vector-effect="non-scaling-stroke" d="
  M 220.85 158.63
  Q 204.81 158.25 189.21 158.64
  C 185.06 158.74 183.95 160.07 182.30 163.53
  C 166.54 196.64 154.26 226.37 148.26 261.25
  C 141.89 298.24 147.88 333.82 161.33 369.18
  C 167.94 386.58 179.49 412.86 186.27 435.51
  C 201.72 487.10 194.95 540.07 175.69 589.19
  Q 171.42 600.09 169.73 605.15
  A 0.50 0.49 9.0 0 0 170.21 605.80
  Q 185.94 605.43 201.69 605.26
  Q 205.34 605.22 206.55 601.77
  Q 213.90 580.70 218.82 558.97
  Q 231.99 500.84 218.18 442.87
  C 206.64 394.41 183.69 351.90 177.97 303.71
  C 172.38 256.61 188.84 211.00 213.39 171.61
  Q 217.37 165.24 221.06 159.00
  Q 221.27 158.64 220.85 158.63"
/>
<path stroke="#96c9b0" vector-effect="non-scaling-stroke" d="
  M 234.96 241.61
  C 242.86 212.42 256.54 184.94 273.29 159.92
  Q 274.21 158.55 272.55 158.54
  Q 256.86 158.50 241.99 158.48
  C 236.85 158.48 235.80 161.96 233.85 165.81
  C 209.84 213.06 191.35 268.92 200.65 322.57
  C 205.95 353.17 219.15 383.03 230.83 412.30
  C 244.76 447.18 251.00 484.43 245.65 521.74
  C 241.46 550.94 233.47 576.74 222.56 603.55
  Q 221.69 605.68 223.99 605.66
  L 256.27 605.36
  A 1.85 1.85 0.0 0 0 257.99 604.15
  C 277.01 553.25 283.87 501.21 271.83 447.78
  C 264.60 415.72 253.28 387.03 243.10 356.97
  C 230.33 319.27 224.32 280.97 234.96 241.61"
/>
<path stroke="#96c9b0" vector-effect="non-scaling-stroke" d="
  M 345.44 161.94
  Q 335.37 174.94 326.72 189.96
  A 1.11 1.11 0.0 0 0 327.49 191.61
  Q 329.31 191.93 332.00 191.96
  Q 347.48 192.10 362.98 191.91
  C 366.72 191.86 369.58 192.13 370.02 187.41
  C 371.20 174.89 366.16 163.40 353.76 159.28
  Q 348.78 157.63 345.44 161.94"
/>
<path stroke="#f47f7d" vector-effect="non-scaling-stroke" d="
  M 356.16 336.35
  C 361.36 340.43 375.23 347.35 373.36 355.32
  C 372.21 360.23 368.40 363.29 363.48 362.70
  C 357.32 361.96 353.55 355.35 352.82 349.59
  A 0.51 0.50 48.8 0 0 351.83 349.52
  Q 350.21 355.79 351.33 362.11
  Q 351.43 362.66 351.91 362.95
  Q 354.77 364.72 359.51 364.89
  Q 372.13 365.34 377.90 355.37
  C 383.11 346.36 373.51 340.31 366.98 336.25
  C 362.11 333.22 354.21 326.93 358.93 320.83
  C 361.69 317.28 366.38 316.81 370.05 319.27
  C 372.52 320.93 373.40 324.62 375.06 327.34
  A 0.90 0.90 0.0 0 0 376.72 327.04
  Q 377.60 322.32 376.86 317.56
  Q 376.78 317.05 376.29 316.88
  Q 369.31 314.55 363.24 316.22
  C 354.93 318.51 346.87 329.06 356.16 336.35"
/>
<path stroke="#f47f7d" vector-effect="non-scaling-stroke" d="
  M 384.54 317.74
  L 387.94 319.68
  Q 388.42 319.95 388.44 320.50
  Q 388.87 334.28 389.14 348.09
  Q 389.26 354.34 390.70 357.20
  C 395.07 365.92 408.17 366.13 416.54 363.86
  C 422.53 362.24 425.15 355.94 425.31 350.26
  C 425.63 339.14 424.56 326.48 431.73 317.21
  A 0.68 0.68 0.0 0 0 431.18 316.11
  L 417.78 316.35
  A 0.87 0.87 0.0 0 0 417.19 317.85
  Q 421.33 321.88 422.19 327.16
  C 423.61 335.88 426.14 358.02 415.79 361.76
  Q 407.14 364.89 399.66 359.48
  C 396.10 356.90 396.11 352.38 396.04 348.25
  Q 395.83 334.14 396.21 320.35
  A 1.81 1.81 0.0 0 1 397.65 318.63
  L 401.05 317.92
  A 0.38 0.38 0.0 0 0 401.06 317.18
  C 397.87 316.41 386.54 315.09 384.46 317.14
  Q 384.10 317.49 384.54 317.74"
/>
<path stroke="#f47f7d" vector-effect="non-scaling-stroke" d="
  M 542.64 318.33
  L 545.60 319.67
  Q 546.04 319.87 546.06 320.36
  Q 546.54 337.42 546.47 354.48
  C 546.46 357.88 546.85 360.99 542.66 361.43
  A 1.04 1.04 0.0 0 0 542.62 363.50
  Q 550.61 364.60 558.60 363.53
  A 0.66 0.66 0.0 0 0 558.80 362.28
  L 554.58 360.24
  A 2.79 2.78 12.9 0 1 553.00 357.73
  L 553.00 343.02
  A 1.74 1.74 0.0 0 1 554.73 341.28
  L 566.47 341.20
  A 0.88 0.87 81.7 0 0 567.30 340.08
  C 566.88 338.64 554.95 339.64 553.51 332.49
  Q 552.40 326.98 552.69 320.24
  C 552.89 315.38 564.76 319.39 566.79 320.45
  Q 567.27 320.70 567.42 321.22
  L 569.31 327.73
  Q 569.71 329.12 570.91 328.35
  C 572.63 327.23 571.92 318.57 571.57 316.93
  A 1.36 1.35 -7.5 0 0 570.17 315.86
  Q 557.14 316.61 544.01 316.12
  Q 542.09 316.05 542.05 317.38
  A 1.00 0.99 13.6 0 0 542.64 318.33"
/>
<path stroke="#f47f7d" vector-effect="non-scaling-stroke" d="
  M 440.47 320.08
  A 2.58 2.57 -71.9 0 1 441.45 322.02
  Q 442.03 339.10 441.47 356.02
  C 441.38 358.74 440.81 360.56 438.14 361.40
  A 1.38 1.38 0.0 0 0 438.59 364.10
  L 453.25 363.74
  A 0.84 0.84 0.0 0 0 453.73 362.23
  Q 451.98 360.92 449.84 360.49
  A 2.00 1.99 -84.2 0 1 448.24 358.52
  L 448.30 340.33
  Q 448.31 339.71 448.92 339.70
  L 470.33 339.24
  Q 470.89 339.23 471.06 339.76
  C 472.52 344.42 471.81 351.99 471.66 356.95
  Q 471.51 361.77 466.77 361.91
  A 0.64 0.64 0.0 0 0 466.66 363.17
  Q 474.08 364.68 481.65 363.69
  A 1.23 1.23 0.0 0 0 481.78 361.27
  C 477.71 360.28 478.10 357.78 478.04 353.87
  Q 477.79 337.52 478.33 321.15
  Q 478.35 320.65 478.69 320.28
  C 479.54 319.37 482.75 318.00 482.90 317.15
  A 0.41 0.41 0.0 0 0 482.53 316.68
  Q 474.35 315.94 466.22 316.75
  A 0.44 0.43 -37.1 0 0 466.10 317.59
  L 470.61 319.37
  Q 471.09 319.56 471.19 320.07
  Q 472.72 328.46 471.05 336.73
  A 0.65 0.65 0.0 0 1 470.41 337.26
  L 449.44 337.19
  A 1.20 1.19 0.2 0 1 448.25 336.00
  L 448.27 321.41
  A 2.24 2.22 -12.5 0 1 449.57 319.39
  L 453.87 317.38
  A 0.37 0.37 0.0 0 0 453.73 316.67
  L 437.01 316.12
  A 0.53 0.53 0.0 0 0 436.67 317.07
  L 440.47 320.08"
/>
<path stroke="#f47f7d" vector-effect="non-scaling-stroke" d="
  M 489.54 317.14
  C 489.28 318.17 492.62 319.48 493.41 319.83
  Q 493.91 320.05 493.92 320.59
  Q 494.36 340.92 494.05 347.99
  C 493.62 357.79 498.20 363.12 507.38 364.54
  C 522.07 366.81 530.49 361.27 531.31 346.38
  C 531.91 335.47 529.77 323.59 537.03 316.82
  Q 537.37 316.50 536.91 316.46
  C 530.64 315.93 525.60 315.86 521.81 317.30
  Q 521.13 317.55 521.68 318.03
  Q 525.93 321.67 526.69 324.91
  C 528.61 333.05 529.76 344.50 527.89 352.67
  C 524.95 365.48 503.62 366.57 501.07 353.70
  Q 500.59 351.26 500.92 341.69
  Q 501.24 332.21 500.65 322.76
  Q 500.55 321.24 501.11 319.89
  Q 501.30 319.45 501.76 319.33
  Q 503.84 318.76 505.61 317.59
  Q 506.36 317.09 505.47 316.97
  Q 497.89 315.93 490.31 316.49
  A 0.87 0.86 4.7 0 0 489.54 317.14"
/>
<path stroke="#f47f7d" vector-effect="non-scaling-stroke" d="
  M 545.90 444.35
  C 547.97 444.61 560.41 445.35 561.06 443.93
  A 0.48 0.48 0.0 0 0 560.60 443.25
  C 553.19 443.55 556.12 432.41 557.52 428.61
  Q 557.69 428.17 558.15 428.14
  L 573.39 427.02
  Q 573.97 426.98 574.24 427.50
  Q 577.95 434.94 578.95 443.17
  A 1.40 1.39 -89.2 0 0 580.12 444.38
  Q 585.29 445.20 590.45 444.43
  A 0.61 0.61 0.0 0 0 590.64 443.29
  C 587.21 441.52 585.71 439.21 584.37 435.37
  Q 577.47 415.71 570.94 396.20
  A 0.96 0.96 0.0 0 0 569.26 395.93
  C 566.89 399.14 565.68 402.31 564.15 405.89
  Q 557.52 421.37 551.93 437.25
  C 550.86 440.29 548.17 441.88 545.70 443.50
  Q 544.64 444.19 545.90 444.35"
/>
<path stroke="#f47f7d" vector-effect="non-scaling-stroke" d="
  M 438.37 399.67
  C 439.65 412.15 438.77 425.84 438.72 438.44
  C 438.69 445.63 428.72 443.78 425.34 440.41
  C 418.93 434.04 413.55 426.17 407.94 419.06
  C 406.77 417.58 407.03 415.52 408.53 414.16
  C 415.04 408.26 420.97 401.82 428.38 397.02
  A 0.14 0.13 -61.2 0 0 428.31 396.77
  L 413.68 396.88
  A 0.69 0.69 0.0 0 0 413.38 398.19
  Q 415.49 399.24 415.83 401.48
  C 416.42 405.35 405.65 415.17 402.72 417.75
  Q 402.33 418.09 402.27 418.61
  C 402.09 420.19 402.08 421.19 403.07 422.57
  Q 409.72 431.84 416.49 441.03
  C 420.10 445.94 422.11 444.75 427.25 444.75
  Q 445.02 444.74 462.56 445.31
  A 1.17 1.16 -86.4 0 0 463.76 444.25
  Q 464.29 438.04 466.99 432.39
  A 0.76 0.76 0.0 0 0 465.71 431.58
  C 463.56 434.26 461.81 437.82 459.52 439.98
  C 456.13 443.19 450.66 443.24 446.47 443.26
  A 1.13 1.12 0.3 0 1 445.34 442.13
  L 445.52 421.65
  Q 445.52 421.26 445.91 421.26
  C 448.03 421.25 458.58 422.36 458.17 419.36
  A 0.51 0.49 83.7 0 0 457.65 418.93
  C 444.08 419.75 444.28 408.27 445.28 398.65
  Q 445.33 398.14 445.84 398.11
  Q 451.84 397.80 457.59 399.62
  A 1.19 1.18 89.5 0 1 458.37 400.39
  L 461.18 408.77
  A 0.83 0.83 0.0 0 0 462.76 408.73
  Q 464.34 402.98 463.51 397.06
  A 1.35 1.34 -6.7 0 0 462.05 395.91
  Q 447.45 397.27 432.82 396.57
  A 0.40 0.40 0.0 0 0 432.68 397.35
  L 437.82 398.99
  Q 438.32 399.15 438.37 399.67"
/>
<path stroke="#f47f7d" vector-effect="non-scaling-stroke" d="
  M 598.41 403.40
  C 589.02 415.82 610.97 422.47 616.18 429.82
  C 620.95 436.54 614.95 445.34 607.01 443.49
  C 600.00 441.86 598.65 436.53 596.59 430.60
  A 0.35 0.35 0.0 0 0 595.95 430.57
  C 594.45 433.68 594.91 439.70 595.05 443.15
  Q 595.06 443.60 595.49 443.75
  C 606.11 447.59 617.89 446.26 622.58 434.85
  C 626.72 424.73 612.22 417.67 605.81 412.94
  C 598.62 407.64 600.82 397.70 610.93 399.26
  C 619.15 400.53 616.15 407.06 620.01 408.83
  A 0.71 0.71 0.0 0 0 621.02 408.21
  L 621.33 399.10
  A 0.79 0.79 0.0 0 0 621.00 398.42
  C 614.39 393.44 603.07 397.22 598.41 403.40"
/>
<path stroke="#f47f7d" vector-effect="non-scaling-stroke" d="
  M 522.66 398.21
  A 1.54 1.54 0.0 0 1 524.23 399.75
  Q 524.25 418.45 524.29 437.03
  C 524.30 440.22 523.71 442.74 520.41 443.46
  A 0.62 0.62 0.0 0 0 520.54 444.69
  L 536.13 444.67
  A 0.61 0.61 0.0 0 0 536.37 443.50
  L 532.82 441.99
  A 1.09 1.07 -86.8 0 1 532.19 441.27
  C 531.20 437.52 531.69 434.13 531.72 430.72
  Q 531.83 414.98 531.67 399.19
  Q 531.67 398.56 532.29 398.50
  Q 543.93 397.35 545.26 408.85
  A 0.82 0.82 0.0 0 0 546.86 409.01
  Q 548.75 403.27 547.33 397.50
  A 1.66 1.65 -11.5 0 0 545.45 396.26
  C 535.15 397.97 523.31 397.00 512.83 396.92
  C 511.69 396.91 510.46 396.60 509.31 396.48
  A 0.82 0.82 0.0 0 0 508.41 397.21
  Q 507.78 403.25 509.09 409.20
  A 0.73 0.73 0.0 0 0 510.53 409.18
  C 511.90 401.87 514.97 398.40 522.66 398.21"
/>
<path stroke="#f47f7d" vector-effect="non-scaling-stroke" d="
  M 389.33 398.72
  L 392.54 400.43
  Q 392.95 400.65 392.99 401.12
  C 393.80 411.40 393.48 422.73 393.73 431.37
  C 393.89 437.00 393.30 440.45 389.24 443.97
  A 0.54 0.54 0.0 0 0 389.62 444.92
  L 404.50 444.45
  A 0.59 0.59 0.0 0 0 404.68 443.31
  Q 402.19 442.42 401.05 440.19
  C 399.21 436.60 400.26 426.45 400.65 422.29
  C 401.33 415.14 398.04 406.10 401.39 399.49
  A 1.55 1.54 2.1 0 1 402.19 398.75
  L 405.92 397.21
  A 0.30 0.30 0.0 0 0 405.79 396.64
  Q 397.85 397.13 389.94 396.84
  Q 388.69 396.80 388.77 397.86
  A 1.07 1.05 12.5 0 0 389.33 398.72"
/>
<path stroke="#f47f7d" vector-effect="non-scaling-stroke" d="
  M 470.61 397.54
  C 470.61 398.72 473.17 399.15 474.07 399.53
  A 0.93 0.92 -83.1 0 1 474.62 400.24
  Q 474.95 402.24 474.96 404.25
  Q 475.04 421.22 474.80 438.18
  Q 474.75 441.52 471.41 443.49
  Q 469.26 444.75 471.75 444.75
  L 485.76 444.75
  A 0.80 0.80 0.0 0 0 486.52 443.71
  L 486.39 443.29
  A 1.30 1.28 2.6 0 0 485.63 442.47
  Q 483.63 441.64 482.20 440.15
  Q 481.84 439.77 481.83 439.26
  L 481.48 420.77
  A 0.61 0.61 0.0 0 1 482.57 420.39
  C 484.22 422.53 486.10 424.42 487.49 426.74
  Q 492.47 435.06 496.50 441.00
  C 499.76 445.81 504.08 444.93 509.20 444.52
  A 0.75 0.75 0.0 0 0 509.44 443.09
  C 502.27 439.91 496.40 429.01 492.52 422.28
  A 1.78 1.77 -30.6 0 1 493.14 419.88
  C 498.84 416.45 502.89 413.39 503.50 406.38
  C 504.41 396.05 490.78 396.26 484.45 396.66
  C 478.88 397.00 475.95 397.11 471.52 396.70
  A 0.84 0.83 2.2 0 0 470.61 397.54"
/>
<path stroke="#f47f7d" vector-effect="non-scaling-stroke" d="
  M 629.32 397.53
  C 629.58 399.02 632.98 399.16 633.44 402.82
  C 634.70 412.98 633.99 423.95 634.00 434.21
  C 634.01 438.66 632.86 441.46 629.75 444.30
  A 0.49 0.48 22.0 0 0 630.11 445.14
  Q 644.37 444.23 658.61 445.30
  Q 659.16 445.34 659.33 444.81
  C 660.02 442.53 659.80 440.12 660.48 437.94
  Q 661.21 435.64 661.20 434.76
  Q 661.17 428.83 658.42 433.92
  L 655.09 440.07
  Q 654.83 440.55 654.33 440.78
  Q 648.05 443.71 641.04 443.36
  A 0.57 0.57 0.0 0 1 640.50 442.79
  L 640.50 422.71
  A 1.31 1.31 0.0 0 1 641.78 421.40
  L 654.20 421.09
  A 0.55 0.55 0.0 0 0 654.60 420.18
  C 653.62 419.07 647.20 418.09 645.30 417.42
  C 639.03 415.22 639.73 404.69 640.08 399.41
  A 1.45 1.45 0.0 0 1 641.55 398.05
  Q 646.44 398.13 650.77 399.19
  C 653.83 399.95 656.71 406.58 658.15 409.08
  A 0.67 0.67 0.0 0 0 659.40 408.74
  L 659.34 397.08
  Q 659.33 396.57 658.83 396.58
  L 629.82 396.92
  Q 629.21 396.93 629.32 397.53"
/>
<path stroke="#f47f7d" vector-effect="non-scaling-stroke" d="
  M 673.14 403.47
  Q 674.18 404.55 675.81 406.69
  Q 689.91 425.24 703.95 443.84
  Q 705.01 445.24 706.23 446.21
  A 0.64 0.64 0.0 0 0 707.27 445.70
  Q 707.18 428.66 707.97 411.75
  C 708.12 408.40 708.99 398.07 714.41 397.49
  Q 714.49 397.49 714.45 397.42
  L 714.33 397.19
  A 0.30 0.30 0.0 0 0 714.09 397.04
  L 699.35 396.87
  A 0.77 0.77 0.0 0 0 698.77 398.16
  C 706.09 406.15 705.46 421.84 704.85 432.07
  Q 704.76 433.56 703.67 432.55
  Q 702.66 431.60 701.42 429.86
  Q 691.26 415.52 680.38 401.69
  C 676.57 396.85 672.42 395.33 666.60 397.33
  Q 665.77 397.61 666.58 397.95
  L 668.89 398.93
  Q 669.40 399.14 669.66 399.62
  C 671.66 403.20 670.68 406.71 670.83 409.76
  C 671.35 420.71 671.74 434.96 664.59 443.73
  A 0.67 0.66 -70.3 0 0 665.10 444.82
  L 678.12 444.88
  A 1.02 1.02 0.0 0 0 678.87 443.17
  C 673.13 437.02 673.57 431.85 673.05 421.95
  Q 672.57 412.86 672.48 403.74
  Q 672.47 402.78 673.14 403.47"
/>
<path stroke="#f47f7d" vector-effect="non-scaling-stroke" d="
  M 717.36 397.64
  C 722.24 398.41 723.00 400.91 723.00 405.60
  Q 723.02 421.89 722.84 438.18
  C 722.80 441.81 720.76 442.29 718.64 444.19
  Q 717.79 444.95 718.93 444.91
  L 734.10 444.39
  A 0.65 0.64 -28.5 0 0 734.45 443.22
  L 730.18 440.23
  A 0.97 0.97 0.0 0 1 729.76 439.43
  Q 729.73 421.13 729.76 402.80
  Q 729.77 399.30 732.88 399.05
  Q 733.41 399.00 733.76 398.63
  L 734.73 397.61
  Q 735.27 397.03 734.48 396.97
  Q 725.93 396.37 717.37 397.20
  A 0.22 0.22 0.0 0 0 717.36 397.64"
/>
<path stroke="#96c9b0" vector-effect="non-scaling-stroke" d="
  M 75.59 576.00
  C 72.99 588.81 79.49 601.95 92.48 605.86
  C 95.40 606.73 97.25 605.24 98.67 602.92
  Q 107.29 588.75 113.16 573.38
  A 0.49 0.49 0.0 0 0 112.72 572.72
  Q 96.60 572.26 80.44 572.62
  C 77.49 572.68 76.24 572.78 75.59 576.00"
/>
<path stroke="#f47f7d" vector-effect="non-scaling-stroke" d="
  M 559.60 425.72
  L 572.55 425.16
  A 0.58 0.57 -7.5 0 0 573.09 424.46
  Q 571.21 416.16 567.22 408.55
  Q 565.52 405.30 564.77 408.89
  C 563.50 414.97 560.45 419.31 558.95 424.91
  A 0.64 0.64 0.0 0 0 559.60 425.72"
/>
<path stroke="#f47f7d" vector-effect="non-scaling-stroke" d="
  M 482.11 416.02
  C 485.10 418.34 489.10 420.54 492.69 418.28
  C 499.16 414.21 495.91 399.40 488.36 398.43
  Q 485.67 398.08 482.83 398.82
  Q 482.25 398.97 482.23 399.57
  L 481.69 415.13
  Q 481.67 415.68 482.11 416.02"
/>
</g>
<path fill="#f7f7f7" d="
  M 0.00 0.00
  L 800.00 0.00
  L 800.00 800.00
  L 0.00 800.00
  L 0.00 0.00
  Z
  M 129.60 164.68
  C 106.86 209.03 90.29 258.52 94.25 309.06
  C 97.74 353.66 121.06 393.39 133.95 435.51
  C 142.47 463.34 144.95 492.11 141.07 520.92
  C 137.12 550.27 128.04 576.48 117.88 604.10
  A 1.19 1.18 9.7 0 0 119.01 605.69
  L 151.89 605.35
  Q 152.51 605.35 152.87 604.84
  Q 153.68 603.70 154.24 601.99
  Q 160.53 582.86 164.23 568.98
  Q 182.85 499.21 162.91 430.45
  C 155.63 405.35 146.47 381.08 138.12 356.42
  C 124.92 317.46 119.67 278.09 131.27 237.57
  C 139.36 209.30 152.75 184.42 168.22 159.86
  Q 169.27 158.19 167.30 158.25
  Q 153.18 158.65 138.04 158.47
  C 132.54 158.41 131.79 160.42 129.60 164.68
  Z
  M 276.55 605.26
  Q 276.68 605.31 276.81 605.42
  Q 277.04 605.61 277.34 605.61
  Q 292.09 605.14 306.83 605.46
  C 308.91 605.51 310.39 604.36 311.04 602.55
  C 328.55 554.06 335.73 502.61 325.01 451.76
  C 317.61 416.67 303.45 382.34 292.82 349.94
  Q 284.89 325.79 282.28 299.96
  C 277.02 247.85 298.56 202.61 325.44 159.55
  Q 326.15 158.41 324.81 158.42
  L 291.12 158.67
  A 2.68 2.67 -76.7 0 0 288.75 160.14
  C 270.81 195.59 255.12 234.49 251.32 274.42
  Q 247.37 316.06 261.26 355.88
  C 269.62 379.88 279.58 402.10 288.26 427.20
  Q 301.59 465.75 299.47 505.71
  C 297.64 540.14 287.02 572.66 274.43 604.76
  Q 274.24 605.27 274.75 605.44
  Q 275.62 605.74 276.46 605.27
  Q 276.50 605.25 276.55 605.26
  Z
  M 220.85 158.63
  Q 204.81 158.25 189.21 158.64
  C 185.06 158.74 183.95 160.07 182.30 163.53
  C 166.54 196.64 154.26 226.37 148.26 261.25
  C 141.89 298.24 147.88 333.82 161.33 369.18
  C 167.94 386.58 179.49 412.86 186.27 435.51
  C 201.72 487.10 194.95 540.07 175.69 589.19
  Q 171.42 600.09 169.73 605.15
  A 0.50 0.49 9.0 0 0 170.21 605.80
  Q 185.94 605.43 201.69 605.26
  Q 205.34 605.22 206.55 601.77
  Q 213.90 580.70 218.82 558.97
  Q 231.99 500.84 218.18 442.87
  C 206.64 394.41 183.69 351.90 177.97 303.71
  C 172.38 256.61 188.84 211.00 213.39 171.61
  Q 217.37 165.24 221.06 159.00
  Q 221.27 158.64 220.85 158.63
  Z
  M 234.96 241.61
  C 242.86 212.42 256.54 184.94 273.29 159.92
  Q 274.21 158.55 272.55 158.54
  Q 256.86 158.50 241.99 158.48
  C 236.85 158.48 235.80 161.96 233.85 165.81
  C 209.84 213.06 191.35 268.92 200.65 322.57
  C 205.95 353.17 219.15 383.03 230.83 412.30
  C 244.76 447.18 251.00 484.43 245.65 521.74
  C 241.46 550.94 233.47 576.74 222.56 603.55
  Q 221.69 605.68 223.99 605.66
  L 256.27 605.36
  A 1.85 1.85 0.0 0 0 257.99 604.15
  C 277.01 553.25 283.87 501.21 271.83 447.78
  C 264.60 415.72 253.28 387.03 243.10 356.97
  C 230.33 319.27 224.32 280.97 234.96 241.61
  Z
  M 345.44 161.94
  Q 335.37 174.94 326.72 189.96
  A 1.11 1.11 0.0 0 0 327.49 191.61
  Q 329.31 191.93 332.00 191.96
  Q 347.48 192.10 362.98 191.91
  C 366.72 191.86 369.58 192.13 370.02 187.41
  C 371.20 174.89 366.16 163.40 353.76 159.28
  Q 348.78 157.63 345.44 161.94
  Z
  M 356.16 336.35
  C 361.36 340.43 375.23 347.35 373.36 355.32
  C 372.21 360.23 368.40 363.29 363.48 362.70
  C 357.32 361.96 353.55 355.35 352.82 349.59
  A 0.51 0.50 48.8 0 0 351.83 349.52
  Q 350.21 355.79 351.33 362.11
  Q 351.43 362.66 351.91 362.95
  Q 354.77 364.72 359.51 364.89
  Q 372.13 365.34 377.90 355.37
  C 383.11 346.36 373.51 340.31 366.98 336.25
  C 362.11 333.22 354.21 326.93 358.93 320.83
  C 361.69 317.28 366.38 316.81 370.05 319.27
  C 372.52 320.93 373.40 324.62 375.06 327.34
  A 0.90 0.90 0.0 0 0 376.72 327.04
  Q 377.60 322.32 376.86 317.56
  Q 376.78 317.05 376.29 316.88
  Q 369.31 314.55 363.24 316.22
  C 354.93 318.51 346.87 329.06 356.16 336.35
  Z
  M 384.54 317.74
  L 387.94 319.68
  Q 388.42 319.95 388.44 320.50
  Q 388.87 334.28 389.14 348.09
  Q 389.26 354.34 390.70 357.20
  C 395.07 365.92 408.17 366.13 416.54 363.86
  C 422.53 362.24 425.15 355.94 425.31 350.26
  C 425.63 339.14 424.56 326.48 431.73 317.21
  A 0.68 0.68 0.0 0 0 431.18 316.11
  L 417.78 316.35
  A 0.87 0.87 0.0 0 0 417.19 317.85
  Q 421.33 321.88 422.19 327.16
  C 423.61 335.88 426.14 358.02 415.79 361.76
  Q 407.14 364.89 399.66 359.48
  C 396.10 356.90 396.11 352.38 396.04 348.25
  Q 395.83 334.14 396.21 320.35
  A 1.81 1.81 0.0 0 1 397.65 318.63
  L 401.05 317.92
  A 0.38 0.38 0.0 0 0 401.06 317.18
  C 397.87 316.41 386.54 315.09 384.46 317.14
  Q 384.10 317.49 384.54 317.74
  Z
  M 542.64 318.33
  L 545.60 319.67
  Q 546.04 319.87 546.06 320.36
  Q 546.54 337.42 546.47 354.48
  C 546.46 357.88 546.85 360.99 542.66 361.43
  A 1.04 1.04 0.0 0 0 542.62 363.50
  Q 550.61 364.60 558.60 363.53
  A 0.66 0.66 0.0 0 0 558.80 362.28
  L 554.58 360.24
  A 2.79 2.78 12.9 0 1 553.00 357.73
  L 553.00 343.02
  A 1.74 1.74 0.0 0 1 554.73 341.28
  L 566.47 341.20
  A 0.88 0.87 81.7 0 0 567.30 340.08
  C 566.88 338.64 554.95 339.64 553.51 332.49
  Q 552.40 326.98 552.69 320.24
  C 552.89 315.38 564.76 319.39 566.79 320.45
  Q 567.27 320.70 567.42 321.22
  L 569.31 327.73
  Q 569.71 329.12 570.91 328.35
  C 572.63 327.23 571.92 318.57 571.57 316.93
  A 1.36 1.35 -7.5 0 0 570.17 315.86
  Q 557.14 316.61 544.01 316.12
  Q 542.09 316.05 542.05 317.38
  A 1.00 0.99 13.6 0 0 542.64 318.33
  Z
  M 440.47 320.08
  A 2.58 2.57 -71.9 0 1 441.45 322.02
  Q 442.03 339.10 441.47 356.02
  C 441.38 358.74 440.81 360.56 438.14 361.40
  A 1.38 1.38 0.0 0 0 438.59 364.10
  L 453.25 363.74
  A 0.84 0.84 0.0 0 0 453.73 362.23
  Q 451.98 360.92 449.84 360.49
  A 2.00 1.99 -84.2 0 1 448.24 358.52
  L 448.30 340.33
  Q 448.31 339.71 448.92 339.70
  L 470.33 339.24
  Q 470.89 339.23 471.06 339.76
  C 472.52 344.42 471.81 351.99 471.66 356.95
  Q 471.51 361.77 466.77 361.91
  A 0.64 0.64 0.0 0 0 466.66 363.17
  Q 474.08 364.68 481.65 363.69
  A 1.23 1.23 0.0 0 0 481.78 361.27
  C 477.71 360.28 478.10 357.78 478.04 353.87
  Q 477.79 337.52 478.33 321.15
  Q 478.35 320.65 478.69 320.28
  C 479.54 319.37 482.75 318.00 482.90 317.15
  A 0.41 0.41 0.0 0 0 482.53 316.68
  Q 474.35 315.94 466.22 316.75
  A 0.44 0.43 -37.1 0 0 466.10 317.59
  L 470.61 319.37
  Q 471.09 319.56 471.19 320.07
  Q 472.72 328.46 471.05 336.73
  A 0.65 0.65 0.0 0 1 470.41 337.26
  L 449.44 337.19
  A 1.20 1.19 0.2 0 1 448.25 336.00
  L 448.27 321.41
  A 2.24 2.22 -12.5 0 1 449.57 319.39
  L 453.87 317.38
  A 0.37 0.37 0.0 0 0 453.73 316.67
  L 437.01 316.12
  A 0.53 0.53 0.0 0 0 436.67 317.07
  L 440.47 320.08
  Z
  M 489.54 317.14
  C 489.28 318.17 492.62 319.48 493.41 319.83
  Q 493.91 320.05 493.92 320.59
  Q 494.36 340.92 494.05 347.99
  C 493.62 357.79 498.20 363.12 507.38 364.54
  C 522.07 366.81 530.49 361.27 531.31 346.38
  C 531.91 335.47 529.77 323.59 537.03 316.82
  Q 537.37 316.50 536.91 316.46
  C 530.64 315.93 525.60 315.86 521.81 317.30
  Q 521.13 317.55 521.68 318.03
  Q 525.93 321.67 526.69 324.91
  C 528.61 333.05 529.76 344.50 527.89 352.67
  C 524.95 365.48 503.62 366.57 501.07 353.70
  Q 500.59 351.26 500.92 341.69
  Q 501.24 332.21 500.65 322.76
  Q 500.55 321.24 501.11 319.89
  Q 501.30 319.45 501.76 319.33
  Q 503.84 318.76 505.61 317.59
  Q 506.36 317.09 505.47 316.97
  Q 497.89 315.93 490.31 316.49
  A 0.87 0.86 4.7 0 0 489.54 317.14
  Z
  M 545.90 444.35
  C 547.97 444.61 560.41 445.35 561.06 443.93
  A 0.48 0.48 0.0 0 0 560.60 443.25
  C 553.19 443.55 556.12 432.41 557.52 428.61
  Q 557.69 428.17 558.15 428.14
  L 573.39 427.02
  Q 573.97 426.98 574.24 427.50
  Q 577.95 434.94 578.95 443.17
  A 1.40 1.39 -89.2 0 0 580.12 444.38
  Q 585.29 445.20 590.45 444.43
  A 0.61 0.61 0.0 0 0 590.64 443.29
  C 587.21 441.52 585.71 439.21 584.37 435.37
  Q 577.47 415.71 570.94 396.20
  A 0.96 0.96 0.0 0 0 569.26 395.93
  C 566.89 399.14 565.68 402.31 564.15 405.89
  Q 557.52 421.37 551.93 437.25
  C 550.86 440.29 548.17 441.88 545.70 443.50
  Q 544.64 444.19 545.90 444.35
  Z
  M 438.37 399.67
  C 439.65 412.15 438.77 425.84 438.72 438.44
  C 438.69 445.63 428.72 443.78 425.34 440.41
  C 418.93 434.04 413.55 426.17 407.94 419.06
  C 406.77 417.58 407.03 415.52 408.53 414.16
  C 415.04 408.26 420.97 401.82 428.38 397.02
  A 0.14 0.13 -61.2 0 0 428.31 396.77
  L 413.68 396.88
  A 0.69 0.69 0.0 0 0 413.38 398.19
  Q 415.49 399.24 415.83 401.48
  C 416.42 405.35 405.65 415.17 402.72 417.75
  Q 402.33 418.09 402.27 418.61
  C 402.09 420.19 402.08 421.19 403.07 422.57
  Q 409.72 431.84 416.49 441.03
  C 420.10 445.94 422.11 444.75 427.25 444.75
  Q 445.02 444.74 462.56 445.31
  A 1.17 1.16 -86.4 0 0 463.76 444.25
  Q 464.29 438.04 466.99 432.39
  A 0.76 0.76 0.0 0 0 465.71 431.58
  C 463.56 434.26 461.81 437.82 459.52 439.98
  C 456.13 443.19 450.66 443.24 446.47 443.26
  A 1.13 1.12 0.3 0 1 445.34 442.13
  L 445.52 421.65
  Q 445.52 421.26 445.91 421.26
  C 448.03 421.25 458.58 422.36 458.17 419.36
  A 0.51 0.49 83.7 0 0 457.65 418.93
  C 444.08 419.75 444.28 408.27 445.28 398.65
  Q 445.33 398.14 445.84 398.11
  Q 451.84 397.80 457.59 399.62
  A 1.19 1.18 89.5 0 1 458.37 400.39
  L 461.18 408.77
  A 0.83 0.83 0.0 0 0 462.76 408.73
  Q 464.34 402.98 463.51 397.06
  A 1.35 1.34 -6.7 0 0 462.05 395.91
  Q 447.45 397.27 432.82 396.57
  A 0.40 0.40 0.0 0 0 432.68 397.35
  L 437.82 398.99
  Q 438.32 399.15 438.37 399.67
  Z
  M 598.41 403.40
  C 589.02 415.82 610.97 422.47 616.18 429.82
  C 620.95 436.54 614.95 445.34 607.01 443.49
  C 600.00 441.86 598.65 436.53 596.59 430.60
  A 0.35 0.35 0.0 0 0 595.95 430.57
  C 594.45 433.68 594.91 439.70 595.05 443.15
  Q 595.06 443.60 595.49 443.75
  C 606.11 447.59 617.89 446.26 622.58 434.85
  C 626.72 424.73 612.22 417.67 605.81 412.94
  C 598.62 407.64 600.82 397.70 610.93 399.26
  C 619.15 400.53 616.15 407.06 620.01 408.83
  A 0.71 0.71 0.0 0 0 621.02 408.21
  L 621.33 399.10
  A 0.79 0.79 0.0 0 0 621.00 398.42
  C 614.39 393.44 603.07 397.22 598.41 403.40
  Z
  M 522.66 398.21
  A 1.54 1.54 0.0 0 1 524.23 399.75
  Q 524.25 418.45 524.29 437.03
  C 524.30 440.22 523.71 442.74 520.41 443.46
  A 0.62 0.62 0.0 0 0 520.54 444.69
  L 536.13 444.67
  A 0.61 0.61 0.0 0 0 536.37 443.50
  L 532.82 441.99
  A 1.09 1.07 -86.8 0 1 532.19 441.27
  C 531.20 437.52 531.69 434.13 531.72 430.72
  Q 531.83 414.98 531.67 399.19
  Q 531.67 398.56 532.29 398.50
  Q 543.93 397.35 545.26 408.85
  A 0.82 0.82 0.0 0 0 546.86 409.01
  Q 548.75 403.27 547.33 397.50
  A 1.66 1.65 -11.5 0 0 545.45 396.26
  C 535.15 397.97 523.31 397.00 512.83 396.92
  C 511.69 396.91 510.46 396.60 509.31 396.48
  A 0.82 0.82 0.0 0 0 508.41 397.21
  Q 507.78 403.25 509.09 409.20
  A 0.73 0.73 0.0 0 0 510.53 409.18
  C 511.90 401.87 514.97 398.40 522.66 398.21
  Z
  M 389.33 398.72
  L 392.54 400.43
  Q 392.95 400.65 392.99 401.12
  C 393.80 411.40 393.48 422.73 393.73 431.37
  C 393.89 437.00 393.30 440.45 389.24 443.97
  A 0.54 0.54 0.0 0 0 389.62 444.92
  L 404.50 444.45
  A 0.59 0.59 0.0 0 0 404.68 443.31
  Q 402.19 442.42 401.05 440.19
  C 399.21 436.60 400.26 426.45 400.65 422.29
  C 401.33 415.14 398.04 406.10 401.39 399.49
  A 1.55 1.54 2.1 0 1 402.19 398.75
  L 405.92 397.21
  A 0.30 0.30 0.0 0 0 405.79 396.64
  Q 397.85 397.13 389.94 396.84
  Q 388.69 396.80 388.77 397.86
  A 1.07 1.05 12.5 0 0 389.33 398.72
  Z
  M 470.61 397.54
  C 470.61 398.72 473.17 399.15 474.07 399.53
  A 0.93 0.92 -83.1 0 1 474.62 400.24
  Q 474.95 402.24 474.96 404.25
  Q 475.04 421.22 474.80 438.18
  Q 474.75 441.52 471.41 443.49
  Q 469.26 444.75 471.75 444.75
  L 485.76 444.75
  A 0.80 0.80 0.0 0 0 486.52 443.71
  L 486.39 443.29
  A 1.30 1.28 2.6 0 0 485.63 442.47
  Q 483.63 441.64 482.20 440.15
  Q 481.84 439.77 481.83 439.26
  L 481.48 420.77
  A 0.61 0.61 0.0 0 1 482.57 420.39
  C 484.22 422.53 486.10 424.42 487.49 426.74
  Q 492.47 435.06 496.50 441.00
  C 499.76 445.81 504.08 444.93 509.20 444.52
  A 0.75 0.75 0.0 0 0 509.44 443.09
  C 502.27 439.91 496.40 429.01 492.52 422.28
  A 1.78 1.77 -30.6 0 1 493.14 419.88
  C 498.84 416.45 502.89 413.39 503.50 406.38
  C 504.41 396.05 490.78 396.26 484.45 396.66
  C 478.88 397.00 475.95 397.11 471.52 396.70
  A 0.84 0.83 2.2 0 0 470.61 397.54
  Z
  M 629.32 397.53
  C 629.58 399.02 632.98 399.16 633.44 402.82
  C 634.70 412.98 633.99 423.95 634.00 434.21
  C 634.01 438.66 632.86 441.46 629.75 444.30
  A 0.49 0.48 22.0 0 0 630.11 445.14
  Q 644.37 444.23 658.61 445.30
  Q 659.16 445.34 659.33 444.81
  C 660.02 442.53 659.80 440.12 660.48 437.94
  Q 661.21 435.64 661.20 434.76
  Q 661.17 428.83 658.42 433.92
  L 655.09 440.07
  Q 654.83 440.55 654.33 440.78
  Q 648.05 443.71 641.04 443.36
  A 0.57 0.57 0.0 0 1 640.50 442.79
  L 640.50 422.71
  A 1.31 1.31 0.0 0 1 641.78 421.40
  L 654.20 421.09
  A 0.55 0.55 0.0 0 0 654.60 420.18
  C 653.62 419.07 647.20 418.09 645.30 417.42
  C 639.03 415.22 639.73 404.69 640.08 399.41
  A 1.45 1.45 0.0 0 1 641.55 398.05
  Q 646.44 398.13 650.77 399.19
  C 653.83 399.95 656.71 406.58 658.15 409.08
  A 0.67 0.67 0.0 0 0 659.40 408.74
  L 659.34 397.08
  Q 659.33 396.57 658.83 396.58
  L 629.82 396.92
  Q 629.21 396.93 629.32 397.53
  Z
  M 673.14 403.47
  Q 674.18 404.55 675.81 406.69
  Q 689.91 425.24 703.95 443.84
  Q 705.01 445.24 706.23 446.21
  A 0.64 0.64 0.0 0 0 707.27 445.70
  Q 707.18 428.66 707.97 411.75
  C 708.12 408.40 708.99 398.07 714.41 397.49
  Q 714.49 397.49 714.45 397.42
  L 714.33 397.19
  A 0.30 0.30 0.0 0 0 714.09 397.04
  L 699.35 396.87
  A 0.77 0.77 0.0 0 0 698.77 398.16
  C 706.09 406.15 705.46 421.84 704.85 432.07
  Q 704.76 433.56 703.67 432.55
  Q 702.66 431.60 701.42 429.86
  Q 691.26 415.52 680.38 401.69
  C 676.57 396.85 672.42 395.33 666.60 397.33
  Q 665.77 397.61 666.58 397.95
  L 668.89 398.93
  Q 669.40 399.14 669.66 399.62
  C 671.66 403.20 670.68 406.71 670.83 409.76
  C 671.35 420.71 671.74 434.96 664.59 443.73
  A 0.67 0.66 -70.3 0 0 665.10 444.82
  L 678.12 444.88
  A 1.02 1.02 0.0 0 0 678.87 443.17
  C 673.13 437.02 673.57 431.85 673.05 421.95
  Q 672.57 412.86 672.48 403.74
  Q 672.47 402.78 673.14 403.47
  Z
  M 717.36 397.64
  C 722.24 398.41 723.00 400.91 723.00 405.60
  Q 723.02 421.89 722.84 438.18
  C 722.80 441.81 720.76 442.29 718.64 444.19
  Q 717.79 444.95 718.93 444.91
  L 734.10 444.39
  A 0.65 0.64 -28.5 0 0 734.45 443.22
  L 730.18 440.23
  A 0.97 0.97 0.0 0 1 729.76 439.43
  Q 729.73 421.13 729.76 402.80
  Q 729.77 399.30 732.88 399.05
  Q 733.41 399.00 733.76 398.63
  L 734.73 397.61
  Q 735.27 397.03 734.48 396.97
  Q 725.93 396.37 717.37 397.20
  A 0.22 0.22 0.0 0 0 717.36 397.64
  Z
  M 75.59 576.00
  C 72.99 588.81 79.49 601.95 92.48 605.86
  C 95.40 606.73 97.25 605.24 98.67 602.92
  Q 107.29 588.75 113.16 573.38
  A 0.49 0.49 0.0 0 0 112.72 572.72
  Q 96.60 572.26 80.44 572.62
  C 77.49 572.68 76.24 572.78 75.59 576.00
  Z"
/>
<path fill="#359b68" d="
  M 94.25 309.06
  C 90.29 258.52 106.86 209.03 129.60 164.68
  C 131.79 160.42 132.54 158.41 138.04 158.47
  Q 153.18 158.65 167.30 158.25
  Q 169.27 158.19 168.22 159.86
  C 152.75 184.42 139.36 209.30 131.27 237.57
  C 119.67 278.09 124.92 317.46 138.12 356.42
  C 146.47 381.08 155.63 405.35 162.91 430.45
  Q 182.85 499.21 164.23 568.98
  Q 160.53 582.86 154.24 601.99
  Q 153.68 603.70 152.87 604.84
  Q 152.51 605.35 151.89 605.35
  L 119.01 605.69
  A 1.19 1.18 9.7 0 1 117.88 604.10
  C 128.04 576.48 137.12 550.27 141.07 520.92
  C 144.95 492.11 142.47 463.34 133.95 435.51
  C 121.06 393.39 97.74 353.66 94.25 309.06
  Z"
/>
<path fill="#359b68" d="
  M 276.46 605.27
  Q 275.62 605.74 274.75 605.44
  Q 274.24 605.27 274.43 604.76
  C 287.02 572.66 297.64 540.14 299.47 505.71
  Q 301.59 465.75 288.26 427.20
  C 279.58 402.10 269.62 379.88 261.26 355.88
  Q 247.37 316.06 251.32 274.42
  C 255.12 234.49 270.81 195.59 288.75 160.14
  A 2.68 2.67 -76.7 0 1 291.12 158.67
  L 324.81 158.42
  Q 326.15 158.41 325.44 159.55
  C 298.56 202.61 277.02 247.85 282.28 299.96
  Q 284.89 325.79 292.82 349.94
  C 303.45 382.34 317.61 416.67 325.01 451.76
  C 335.73 502.61 328.55 554.06 311.04 602.55
  C 310.39 604.36 308.91 605.51 306.83 605.46
  Q 292.09 605.14 277.34 605.61
  Q 277.04 605.61 276.81 605.42
  Q 276.68 605.31 276.55 605.26
  Q 276.50 605.25 276.46 605.27
  Z"
/>
<path fill="#359b68" d="
  M 220.85 158.63
  Q 221.27 158.64 221.06 159.00
  Q 217.37 165.24 213.39 171.61
  C 188.84 211.00 172.38 256.61 177.97 303.71
  C 183.69 351.90 206.64 394.41 218.18 442.87
  Q 231.99 500.84 218.82 558.97
  Q 213.90 580.70 206.55 601.77
  Q 205.34 605.22 201.69 605.26
  Q 185.94 605.43 170.21 605.80
  A 0.50 0.49 9.0 0 1 169.73 605.15
  Q 171.42 600.09 175.69 589.19
  C 194.95 540.07 201.72 487.10 186.27 435.51
  C 179.49 412.86 167.94 386.58 161.33 369.18
  C 147.88 333.82 141.89 298.24 148.26 261.25
  C 154.26 226.37 166.54 196.64 182.30 163.53
  C 183.95 160.07 185.06 158.74 189.21 158.64
  Q 204.81 158.25 220.85 158.63
  Z"
/>
<path fill="#359b68" d="
  M 273.29 159.92
  C 256.54 184.94 242.86 212.42 234.96 241.61
  C 224.32 280.97 230.33 319.27 243.10 356.97
  C 253.28 387.03 264.60 415.72 271.83 447.78
  C 283.87 501.21 277.01 553.25 257.99 604.15
  A 1.85 1.85 0.0 0 1 256.27 605.36
  L 223.99 605.66
  Q 221.69 605.68 222.56 603.55
  C 233.47 576.74 241.46 550.94 245.65 521.74
  C 251.00 484.43 244.76 447.18 230.83 412.30
  C 219.15 383.03 205.95 353.17 200.65 322.57
  C 191.35 268.92 209.84 213.06 233.85 165.81
  C 235.80 161.96 236.85 158.48 241.99 158.48
  Q 256.86 158.50 272.55 158.54
  Q 274.21 158.55 273.29 159.92
  Z"
/>
<path fill="#359b68" d="
  M 345.44 161.94
  Q 348.78 157.63 353.76 159.28
  C 366.16 163.40 371.20 174.89 370.02 187.41
  C 369.58 192.13 366.72 191.86 362.98 191.91
  Q 347.48 192.10 332.00 191.96
  Q 329.31 191.93 327.49 191.61
  A 1.11 1.11 0.0 0 1 326.72 189.96
  Q 335.37 174.94 345.44 161.94
  Z"
/>
<path fill="#f10602" d="
  M 356.16 336.35
  C 346.87 329.06 354.93 318.51 363.24 316.22
  Q 369.31 314.55 376.29 316.88
  Q 376.78 317.05 376.86 317.56
  Q 377.60 322.32 376.72 327.04
  A 0.90 0.90 0.0 0 1 375.06 327.34
  C 373.40 324.62 372.52 320.93 370.05 319.27
  C 366.38 316.81 361.69 317.28 358.93 320.83
  C 354.21 326.93 362.11 333.22 366.98 336.25
  C 373.51 340.31 383.11 346.36 377.90 355.37
  Q 372.13 365.34 359.51 364.89
  Q 354.77 364.72 351.91 362.95
  Q 351.43 362.66 351.33 362.11
  Q 350.21 355.79 351.83 349.52
  A 0.51 0.50 48.8 0 1 352.82 349.59
  C 353.55 355.35 357.32 361.96 363.48 362.70
  C 368.40 363.29 372.21 360.23 373.36 355.32
  C 375.23 347.35 361.36 340.43 356.16 336.35
  Z"
/>
<path fill="#f10602" d="
  M 384.54 317.74
  Q 384.10 317.49 384.46 317.14
  C 386.54 315.09 397.87 316.41 401.06 317.18
  A 0.38 0.38 0.0 0 1 401.05 317.92
  L 397.65 318.63
  A 1.81 1.81 0.0 0 0 396.21 320.35
  Q 395.83 334.14 396.04 348.25
  C 396.11 352.38 396.10 356.90 399.66 359.48
  Q 407.14 364.89 415.79 361.76
  C 426.14 358.02 423.61 335.88 422.19 327.16
  Q 421.33 321.88 417.19 317.85
  A 0.87 0.87 0.0 0 1 417.78 316.35
  L 431.18 316.11
  A 0.68 0.68 0.0 0 1 431.73 317.21
  C 424.56 326.48 425.63 339.14 425.31 350.26
  C 425.15 355.94 422.53 362.24 416.54 363.86
  C 408.17 366.13 395.07 365.92 390.70 357.20
  Q 389.26 354.34 389.14 348.09
  Q 388.87 334.28 388.44 320.50
  Q 388.42 319.95 387.94 319.68
  L 384.54 317.74
  Z"
/>
<path fill="#f10602" d="
  M 542.64 318.33
  A 1.00 0.99 13.6 0 1 542.05 317.38
  Q 542.09 316.05 544.01 316.12
  Q 557.14 316.61 570.17 315.86
  A 1.36 1.35 -7.5 0 1 571.57 316.93
  C 571.92 318.57 572.63 327.23 570.91 328.35
  Q 569.71 329.12 569.31 327.73
  L 567.42 321.22
  Q 567.27 320.70 566.79 320.45
  C 564.76 319.39 552.89 315.38 552.69 320.24
  Q 552.40 326.98 553.51 332.49
  C 554.95 339.64 566.88 338.64 567.30 340.08
  A 0.88 0.87 81.7 0 1 566.47 341.20
  L 554.73 341.28
  A 1.74 1.74 0.0 0 0 553.00 343.02
  L 553.00 357.73
  A 2.79 2.78 12.9 0 0 554.58 360.24
  L 558.80 362.28
  A 0.66 0.66 0.0 0 1 558.60 363.53
  Q 550.61 364.60 542.62 363.50
  A 1.04 1.04 0.0 0 1 542.66 361.43
  C 546.85 360.99 546.46 357.88 546.47 354.48
  Q 546.54 337.42 546.06 320.36
  Q 546.04 319.87 545.60 319.67
  L 542.64 318.33
  Z"
/>
<path fill="#f10602" d="
  M 440.47 320.08
  L 436.67 317.07
  A 0.53 0.53 0.0 0 1 437.01 316.12
  L 453.73 316.67
  A 0.37 0.37 0.0 0 1 453.87 317.38
  L 449.57 319.39
  A 2.24 2.22 -12.5 0 0 448.27 321.41
  L 448.25 336.00
  A 1.20 1.19 0.2 0 0 449.44 337.19
  L 470.41 337.26
  A 0.65 0.65 0.0 0 0 471.05 336.73
  Q 472.72 328.46 471.19 320.07
  Q 471.09 319.56 470.61 319.37
  L 466.10 317.59
  A 0.44 0.43 -37.1 0 1 466.22 316.75
  Q 474.35 315.94 482.53 316.68
  A 0.41 0.41 0.0 0 1 482.90 317.15
  C 482.75 318.00 479.54 319.37 478.69 320.28
  Q 478.35 320.65 478.33 321.15
  Q 477.79 337.52 478.04 353.87
  C 478.10 357.78 477.71 360.28 481.78 361.27
  A 1.23 1.23 0.0 0 1 481.65 363.69
  Q 474.08 364.68 466.66 363.17
  A 0.64 0.64 0.0 0 1 466.77 361.91
  Q 471.51 361.77 471.66 356.95
  C 471.81 351.99 472.52 344.42 471.06 339.76
  Q 470.89 339.23 470.33 339.24
  L 448.92 339.70
  Q 448.31 339.71 448.30 340.33
  L 448.24 358.52
  A 2.00 1.99 -84.2 0 0 449.84 360.49
  Q 451.98 360.92 453.73 362.23
  A 0.84 0.84 0.0 0 1 453.25 363.74
  L 438.59 364.10
  A 1.38 1.38 0.0 0 1 438.14 361.40
  C 440.81 360.56 441.38 358.74 441.47 356.02
  Q 442.03 339.10 441.45 322.02
  A 2.58 2.57 -71.9 0 0 440.47 320.08
  Z"
/>
<path fill="#f10602" d="
  M 493.41 319.83
  C 492.62 319.48 489.28 318.17 489.54 317.14
  A 0.87 0.86 4.7 0 1 490.31 316.49
  Q 497.89 315.93 505.47 316.97
  Q 506.36 317.09 505.61 317.59
  Q 503.84 318.76 501.76 319.33
  Q 501.30 319.45 501.11 319.89
  Q 500.55 321.24 500.65 322.76
  Q 501.24 332.21 500.92 341.69
  Q 500.59 351.26 501.07 353.70
  C 503.62 366.57 524.95 365.48 527.89 352.67
  C 529.76 344.50 528.61 333.05 526.69 324.91
  Q 525.93 321.67 521.68 318.03
  Q 521.13 317.55 521.81 317.30
  C 525.60 315.86 530.64 315.93 536.91 316.46
  Q 537.37 316.50 537.03 316.82
  C 529.77 323.59 531.91 335.47 531.31 346.38
  C 530.49 361.27 522.07 366.81 507.38 364.54
  C 498.20 363.12 493.62 357.79 494.05 347.99
  Q 494.36 340.92 493.92 320.59
  Q 493.91 320.05 493.41 319.83
  Z"
/>
<path fill="#f10602" d="
  M 545.90 444.35
  Q 544.64 444.19 545.70 443.50
  C 548.17 441.88 550.86 440.29 551.93 437.25
  Q 557.52 421.37 564.15 405.89
  C 565.68 402.31 566.89 399.14 569.26 395.93
  A 0.96 0.96 0.0 0 1 570.94 396.20
  Q 577.47 415.71 584.37 435.37
  C 585.71 439.21 587.21 441.52 590.64 443.29
  A 0.61 0.61 0.0 0 1 590.45 444.43
  Q 585.29 445.20 580.12 444.38
  A 1.40 1.39 -89.2 0 1 578.95 443.17
  Q 577.95 434.94 574.24 427.50
  Q 573.97 426.98 573.39 427.02
  L 558.15 428.14
  Q 557.69 428.17 557.52 428.61
  C 556.12 432.41 553.19 443.55 560.60 443.25
  A 0.48 0.48 0.0 0 1 561.06 443.93
  C 560.41 445.35 547.97 444.61 545.90 444.35
  Z
  M 559.60 425.72
  L 572.55 425.16
  A 0.58 0.57 -7.5 0 0 573.09 424.46
  Q 571.21 416.16 567.22 408.55
  Q 565.52 405.30 564.77 408.89
  C 563.50 414.97 560.45 419.31 558.95 424.91
  A 0.64 0.64 0.0 0 0 559.60 425.72
  Z"
/>
<path fill="#f10602" d="
  M 437.82 398.99
  L 432.68 397.35
  A 0.40 0.40 0.0 0 1 432.82 396.57
  Q 447.45 397.27 462.05 395.91
  A 1.35 1.34 -6.7 0 1 463.51 397.06
  Q 464.34 402.98 462.76 408.73
  A 0.83 0.83 0.0 0 1 461.18 408.77
  L 458.37 400.39
  A 1.19 1.18 89.5 0 0 457.59 399.62
  Q 451.84 397.80 445.84 398.11
  Q 445.33 398.14 445.28 398.65
  C 444.28 408.27 444.08 419.75 457.65 418.93
  A 0.51 0.49 83.7 0 1 458.17 419.36
  C 458.58 422.36 448.03 421.25 445.91 421.26
  Q 445.52 421.26 445.52 421.65
  L 445.34 442.13
  A 1.13 1.12 0.3 0 0 446.47 443.26
  C 450.66 443.24 456.13 443.19 459.52 439.98
  C 461.81 437.82 463.56 434.26 465.71 431.58
  A 0.76 0.76 0.0 0 1 466.99 432.39
  Q 464.29 438.04 463.76 444.25
  A 1.17 1.16 -86.4 0 1 462.56 445.31
  Q 445.02 444.74 427.25 444.75
  C 422.11 444.75 420.10 445.94 416.49 441.03
  Q 409.72 431.84 403.07 422.57
  C 402.08 421.19 402.09 420.19 402.27 418.61
  Q 402.33 418.09 402.72 417.75
  C 405.65 415.17 416.42 405.35 415.83 401.48
  Q 415.49 399.24 413.38 398.19
  A 0.69 0.69 0.0 0 1 413.68 396.88
  L 428.31 396.77
  A 0.14 0.13 -61.2 0 1 428.38 397.02
  C 420.97 401.82 415.04 408.26 408.53 414.16
  C 407.03 415.52 406.77 417.58 407.94 419.06
  C 413.55 426.17 418.93 434.04 425.34 440.41
  C 428.72 443.78 438.69 445.63 438.72 438.44
  C 438.77 425.84 439.65 412.15 438.37 399.67
  Q 438.32 399.15 437.82 398.99
  Z"
/>
<path fill="#f10602" d="
  M 616.18 429.82
  C 610.97 422.47 589.02 415.82 598.41 403.40
  C 603.07 397.22 614.39 393.44 621.00 398.42
  A 0.79 0.79 0.0 0 1 621.33 399.10
  L 621.02 408.21
  A 0.71 0.71 0.0 0 1 620.01 408.83
  C 616.15 407.06 619.15 400.53 610.93 399.26
  C 600.82 397.70 598.62 407.64 605.81 412.94
  C 612.22 417.67 626.72 424.73 622.58 434.85
  C 617.89 446.26 606.11 447.59 595.49 443.75
  Q 595.06 443.60 595.05 443.15
  C 594.91 439.70 594.45 433.68 595.95 430.57
  A 0.35 0.35 0.0 0 1 596.59 430.60
  C 598.65 436.53 600.00 441.86 607.01 443.49
  C 614.95 445.34 620.95 436.54 616.18 429.82
  Z"
/>
<path fill="#f10602" d="
  M 522.66 398.21
  C 514.97 398.40 511.90 401.87 510.53 409.18
  A 0.73 0.73 0.0 0 1 509.09 409.20
  Q 507.78 403.25 508.41 397.21
  A 0.82 0.82 0.0 0 1 509.31 396.48
  C 510.46 396.60 511.69 396.91 512.83 396.92
  C 523.31 397.00 535.15 397.97 545.45 396.26
  A 1.66 1.65 -11.5 0 1 547.33 397.50
  Q 548.75 403.27 546.86 409.01
  A 0.82 0.82 0.0 0 1 545.26 408.85
  Q 543.93 397.35 532.29 398.50
  Q 531.67 398.56 531.67 399.19
  Q 531.83 414.98 531.72 430.72
  C 531.69 434.13 531.20 437.52 532.19 441.27
  A 1.09 1.07 -86.8 0 0 532.82 441.99
  L 536.37 443.50
  A 0.61 0.61 0.0 0 1 536.13 444.67
  L 520.54 444.69
  A 0.62 0.62 0.0 0 1 520.41 443.46
  C 523.71 442.74 524.30 440.22 524.29 437.03
  Q 524.25 418.45 524.23 399.75
  A 1.54 1.54 0.0 0 0 522.66 398.21
  Z"
/>
<path fill="#f10602" d="
  M 389.33 398.72
  A 1.07 1.05 12.5 0 1 388.77 397.86
  Q 388.69 396.80 389.94 396.84
  Q 397.85 397.13 405.79 396.64
  A 0.30 0.30 0.0 0 1 405.92 397.21
  L 402.19 398.75
  A 1.55 1.54 2.1 0 0 401.39 399.49
  C 398.04 406.10 401.33 415.14 400.65 422.29
  C 400.26 426.45 399.21 436.60 401.05 440.19
  Q 402.19 442.42 404.68 443.31
  A 0.59 0.59 0.0 0 1 404.50 444.45
  L 389.62 444.92
  A 0.54 0.54 0.0 0 1 389.24 443.97
  C 393.30 440.45 393.89 437.00 393.73 431.37
  C 393.48 422.73 393.80 411.40 392.99 401.12
  Q 392.95 400.65 392.54 400.43
  L 389.33 398.72
  Z"
/>
<path fill="#f10602" d="
  M 474.07 399.53
  C 473.17 399.15 470.61 398.72 470.61 397.54
  A 0.84 0.83 2.2 0 1 471.52 396.70
  C 475.95 397.11 478.88 397.00 484.45 396.66
  C 490.78 396.26 504.41 396.05 503.50 406.38
  C 502.89 413.39 498.84 416.45 493.14 419.88
  A 1.78 1.77 -30.6 0 0 492.52 422.28
  C 496.40 429.01 502.27 439.91 509.44 443.09
  A 0.75 0.75 0.0 0 1 509.20 444.52
  C 504.08 444.93 499.76 445.81 496.50 441.00
  Q 492.47 435.06 487.49 426.74
  C 486.10 424.42 484.22 422.53 482.57 420.39
  A 0.61 0.61 0.0 0 0 481.48 420.77
  L 481.83 439.26
  Q 481.84 439.77 482.20 440.15
  Q 483.63 441.64 485.63 442.47
  A 1.30 1.28 2.6 0 1 486.39 443.29
  L 486.52 443.71
  A 0.80 0.80 0.0 0 1 485.76 444.75
  L 471.75 444.75
  Q 469.26 444.75 471.41 443.49
  Q 474.75 441.52 474.80 438.18
  Q 475.04 421.22 474.96 404.25
  Q 474.95 402.24 474.62 400.24
  A 0.93 0.92 -83.1 0 0 474.07 399.53
  Z
  M 482.11 416.02
  C 485.10 418.34 489.10 420.54 492.69 418.28
  C 499.16 414.21 495.91 399.40 488.36 398.43
  Q 485.67 398.08 482.83 398.82
  Q 482.25 398.97 482.23 399.57
  L 481.69 415.13
  Q 481.67 415.68 482.11 416.02
  Z"
/>
<path fill="#f10602" d="
  M 633.44 402.82
  C 632.98 399.16 629.58 399.02 629.32 397.53
  Q 629.21 396.93 629.82 396.92
  L 658.83 396.58
  Q 659.33 396.57 659.34 397.08
  L 659.40 408.74
  A 0.67 0.67 0.0 0 1 658.15 409.08
  C 656.71 406.58 653.83 399.95 650.77 399.19
  Q 646.44 398.13 641.55 398.05
  A 1.45 1.45 0.0 0 0 640.08 399.41
  C 639.73 404.69 639.03 415.22 645.30 417.42
  C 647.20 418.09 653.62 419.07 654.60 420.18
  A 0.55 0.55 0.0 0 1 654.20 421.09
  L 641.78 421.40
  A 1.31 1.31 0.0 0 0 640.50 422.71
  L 640.50 442.79
  A 0.57 0.57 0.0 0 0 641.04 443.36
  Q 648.05 443.71 654.33 440.78
  Q 654.83 440.55 655.09 440.07
  L 658.42 433.92
  Q 661.17 428.83 661.20 434.76
  Q 661.21 435.64 660.48 437.94
  C 659.80 440.12 660.02 442.53 659.33 444.81
  Q 659.16 445.34 658.61 445.30
  Q 644.37 444.23 630.11 445.14
  A 0.49 0.48 22.0 0 1 629.75 444.30
  C 632.86 441.46 634.01 438.66 634.00 434.21
  C 633.99 423.95 634.70 412.98 633.44 402.82
  Z"
/>
<path fill="#f10602" d="
  M 672.48 403.74
  Q 672.57 412.86 673.05 421.95
  C 673.57 431.85 673.13 437.02 678.87 443.17
  A 1.02 1.02 0.0 0 1 678.12 444.88
  L 665.10 444.82
  A 0.67 0.66 -70.3 0 1 664.59 443.73
  C 671.74 434.96 671.35 420.71 670.83 409.76
  C 670.68 406.71 671.66 403.20 669.66 399.62
  Q 669.40 399.14 668.89 398.93
  L 666.58 397.95
  Q 665.77 397.61 666.60 397.33
  C 672.42 395.33 676.57 396.85 680.38 401.69
  Q 691.26 415.52 701.42 429.86
  Q 702.66 431.60 703.67 432.55
  Q 704.76 433.56 704.85 432.07
  C 705.46 421.84 706.09 406.15 698.77 398.16
  A 0.77 0.77 0.0 0 1 699.35 396.87
  L 714.09 397.04
  A 0.30 0.30 0.0 0 1 714.33 397.19
  L 714.45 397.42
  Q 714.49 397.49 714.41 397.49
  C 708.99 398.07 708.12 408.40 707.97 411.75
  Q 707.18 428.66 707.27 445.70
  A 0.64 0.64 0.0 0 1 706.23 446.21
  Q 705.01 445.24 703.95 443.84
  Q 689.91 425.24 675.81 406.69
  Q 674.18 404.55 673.14 403.47
  Q 672.47 402.78 672.48 403.74
  Z"
/>
<path fill="#f10602" d="
  M 717.36 397.64
  A 0.22 0.22 0.0 0 1 717.37 397.20
  Q 725.93 396.37 734.48 396.97
  Q 735.27 397.03 734.73 397.61
  L 733.76 398.63
  Q 733.41 399.00 732.88 399.05
  Q 729.77 399.30 729.76 402.80
  Q 729.73 421.13 729.76 439.43
  A 0.97 0.97 0.0 0 0 730.18 440.23
  L 734.45 443.22
  A 0.65 0.64 -28.5 0 1 734.10 444.39
  L 718.93 444.91
  Q 717.79 444.95 718.64 444.19
  C 720.76 442.29 722.80 441.81 722.84 438.18
  Q 723.02 421.89 723.00 405.60
  C 723.00 400.91 722.24 398.41 717.36 397.64
  Z"
/>
<path fill="#f7f7f7" d="
  M 482.11 416.02
  Q 481.67 415.68 481.69 415.13
  L 482.23 399.57
  Q 482.25 398.97 482.83 398.82
  Q 485.67 398.08 488.36 398.43
  C 495.91 399.40 499.16 414.21 492.69 418.28
  C 489.10 420.54 485.10 418.34 482.11 416.02
  Z"
/>
<path fill="#f7f7f7" d="
  M 559.60 425.72
  A 0.64 0.64 0.0 0 1 558.95 424.91
  C 560.45 419.31 563.50 414.97 564.77 408.89
  Q 565.52 405.30 567.22 408.55
  Q 571.21 416.16 573.09 424.46
  A 0.58 0.57 -7.5 0 1 572.55 425.16
  L 559.60 425.72
  Z"
/>
<path fill="#359b68" d="
  M 92.48 605.86
  C 79.49 601.95 72.99 588.81 75.59 576.00
  C 76.24 572.78 77.49 572.68 80.44 572.62
  Q 96.60 572.26 112.72 572.72
  A 0.49 0.49 0.0 0 1 113.16 573.38
  Q 107.29 588.75 98.67 602.92
  C 97.25 605.24 95.40 606.73 92.48 605.86
  Z"
/>
</svg>
